<svg viewBox="0 0 353 201" fill="none" xmlns="http://www.w3.org/2000/svg">
<g clip-path="url(#clip0_2959_29363)">
<g clip-path="url(#clip1_2959_29363)">
<path d="M145.975 138.034H150.861V180.524H145.975V138.034Z" fill="#D9D9D9"/>
<path d="M169.37 138.785H127.466C126.7 138.785 125.966 138.481 125.425 137.94C124.884 137.399 124.58 136.664 124.58 135.899C124.58 135.134 124.884 134.399 125.425 133.858C125.966 133.317 126.7 133.013 127.466 133.013H169.37C170.135 133.013 170.869 133.317 171.41 133.858C171.951 134.399 172.255 135.133 172.255 135.899C172.255 136.664 171.952 137.398 171.41 137.94C170.869 138.481 170.135 138.785 169.37 138.785Z" fill="#D9D9D9"/>
<path d="M121.794 189.724H119.485V184.49L120.23 184.207C129.016 180.872 138.505 179.144 148.433 179.071L148.45 181.38C139.077 181.449 130.114 183.032 121.794 186.088L121.794 189.724Z" fill="#808080"/>
<path d="M177.397 189.724H175.089V186.087C166.769 183.032 157.805 181.449 148.433 181.38L148.449 179.071C158.378 179.144 167.866 180.872 176.652 184.207L177.397 184.49V189.724ZM122.321 189.34H120.295C119.97 189.34 119.658 189.469 119.428 189.699C119.198 189.929 119.068 190.241 119.068 190.567V193.8H126.153L126.158 193.209C126.162 192.702 126.066 192.2 125.875 191.73C125.684 191.261 125.402 190.834 125.045 190.475C124.688 190.115 124.264 189.83 123.796 189.635C123.329 189.44 122.827 189.34 122.321 189.34Z" fill="#808080"/>
<path d="M174.387 189.34H176.412C177.089 189.34 177.639 189.889 177.639 190.567V193.8H170.554L170.549 193.209C170.545 192.702 170.641 192.2 170.832 191.73C171.024 191.261 171.306 190.834 171.662 190.475C172.019 190.115 172.443 189.83 172.911 189.635C173.379 189.44 173.88 189.34 174.387 189.34Z" fill="#808080"/>
<path d="M122.201 196.738C123.931 196.738 125.333 195.336 125.333 193.605C125.333 191.875 123.931 190.473 122.201 190.473C120.472 190.473 119.069 191.875 119.069 193.605C119.069 195.336 120.472 196.738 122.201 196.738Z" fill="#808080"/>
<path d="M136.586 135.569V115.942L127.833 84.1463C126.72 80.1038 129.761 76.1108 133.953 76.1108H162.302C166.494 76.1108 169.536 80.1038 168.423 84.1463L159.67 115.942V135.569H145.774" fill="#D9D9D9"/>
<path d="M161.401 137.301H145.774C145.315 137.301 144.875 137.118 144.55 136.794C144.225 136.469 144.043 136.028 144.043 135.569C144.043 135.11 144.225 134.669 144.55 134.345C144.875 134.02 145.315 133.837 145.774 133.837H157.939V115.708L158.001 115.482L166.753 83.6866C166.945 83.0015 166.974 82.2811 166.839 81.5827C166.704 80.8842 166.408 80.2269 165.975 79.6625C165.546 79.0949 164.991 78.6349 164.354 78.319C163.716 78.0032 163.014 77.8402 162.303 77.843H133.954C133.242 77.8401 132.54 78.0031 131.902 78.3189C131.265 78.6347 130.71 79.0948 130.281 79.6625C129.848 80.2268 129.552 80.8842 129.417 81.5826C129.282 82.2811 129.311 83.0015 129.502 83.6866L138.318 115.708V135.569C138.318 136.028 138.135 136.469 137.811 136.794C137.486 137.118 137.045 137.301 136.586 137.301C136.127 137.301 135.687 137.118 135.362 136.794C135.037 136.469 134.855 136.028 134.855 135.569V116.176L126.164 84.6068C125.829 83.4077 125.778 82.147 126.014 80.9246C126.251 79.7022 126.768 78.5517 127.527 77.5642C128.277 76.5707 129.249 75.7657 130.364 75.213C131.48 74.6602 132.709 74.3748 133.954 74.3795H162.302C164.846 74.3795 167.188 75.5403 168.729 77.5636C169.487 78.5513 170.005 79.7019 170.241 80.9243C170.478 82.1468 170.427 83.4075 170.092 84.6068L161.401 116.176L161.401 137.301Z" fill="#D9D9D9"/>
</g>
<g clip-path="url(#clip2_2959_29363)">
<path d="M166.36 102.739L150.867 82.9559L160.346 76.7666L178.665 100.158L173.028 103.838C171.981 104.522 170.714 104.788 169.479 104.585C168.244 104.381 167.13 103.722 166.36 102.739Z" fill="#4385AC"/>
<path d="M186.662 120.151L141.869 113.909V135.086H185.438C189.114 135.086 192.093 132.118 192.093 128.456V126.411C192.094 124.892 191.545 123.423 190.548 122.274C189.55 121.124 188.171 120.371 186.662 120.151Z" fill="#59A5D5"/>
<path d="M127.352 114.813L167.225 119.515V136.981H138.777C132.467 136.981 127.352 131.885 127.352 125.598V114.813Z" fill="#59A5D5"/>
<path d="M161.284 116.608L142.365 117.62C138.454 117.726 134.711 119.23 131.822 121.858L127.423 125.702C127.423 125.702 123.814 115.951 122.344 112.815C120.643 109.188 118.662 96.1733 118.229 92.1934L116.615 77.3395C115.953 71.2377 121.613 68.6711 127.77 68.897C134.501 69.144 148.958 71.5238 156.664 72.5603C158.93 72.8649 160.584 75.9169 161.276 78.3087L161.284 116.608Z" fill="#4385AC"/>
<path d="M172.571 130.588L158.518 166.717L155.571 176.426L164.899 177.196L186.194 144.367C186.552 143.814 192.333 130.127 191.673 130.143L172.571 130.588Z" fill="#59A5D5"/>
<path d="M178.643 184.418L180.728 183.068C181.074 182.845 181.343 182.521 181.499 182.141C181.655 181.761 181.691 181.343 181.602 180.941C181.513 180.54 181.304 180.176 181.001 179.897C180.699 179.618 180.318 179.437 179.91 179.379L175.507 178.752C174.132 178.557 172.815 178.069 171.646 177.321C170.477 176.574 169.483 175.585 168.732 174.421L166.911 171.602L165.168 172.663C164.965 172.786 164.815 172.98 164.746 173.207C164.677 173.434 164.695 173.678 164.795 173.893L165.388 175.167L162.936 176.181C162.122 176.518 161.229 176.621 160.36 176.476C159.49 176.332 158.679 175.947 158.018 175.366L155.937 173.534C155.855 173.462 155.755 173.414 155.647 173.396C155.539 173.379 155.428 173.392 155.327 173.434C155.226 173.476 155.14 173.546 155.077 173.635C155.014 173.724 154.978 173.829 154.972 173.938L154.542 182.18L155.04 184.12L178.643 184.418Z" fill="#4385AC"/>
<path d="M153.905 182.721L154.291 183.537C154.631 184.256 155.169 184.863 155.843 185.289C156.516 185.715 157.298 185.941 158.095 185.941H175.407C175.74 185.941 176.067 185.855 176.357 185.692L180.189 183.544H165.935C165.682 183.544 165.44 183.446 165.259 183.27C164.351 182.389 163.133 181.896 161.865 181.896H154.43C154.333 181.896 154.236 181.921 154.151 181.968C154.065 182.015 153.992 182.082 153.94 182.165C153.888 182.247 153.857 182.341 153.851 182.439C153.845 182.536 153.863 182.633 153.905 182.721Z" fill="#4385AC"/>
<path d="M155.032 145.072L160.703 162.552L162.634 168.507L163.688 171.759L164 172.722L165.01 175.833L165.507 177.367L166.262 179.701L166.306 179.835L169.873 179.686C170.717 179.653 171.613 179.615 172.439 179.585C172.906 179.565 173.349 179.548 173.751 179.533C174.781 179.493 175.525 179.468 175.622 179.47L175.581 179.177L175.466 178.347L174.567 171.826L173.558 164.512L173.203 142.038C173.177 140.381 172.96 138.733 172.558 137.126L168.593 121.281L154.849 121.818L154.538 141.789C154.522 142.903 154.689 144.011 155.032 145.072Z" fill="#59A5D5"/>
<path d="M176.719 188.715H163.585L162.879 185.481C162.676 184.551 162.807 183.58 163.249 182.736L165.014 179.369L170.34 176.378L175.699 179.369L177.115 183.002C177.521 184.043 177.595 185.185 177.325 186.27L176.719 188.715Z" fill="#4385AC"/>
<path d="M174.772 191.517H165.653C165.14 191.517 164.683 191.24 164.517 190.828L163.595 188.527H176.83L175.907 190.828C175.742 191.24 175.285 191.517 174.772 191.517Z" fill="#4385AC"/>
<path d="M172.997 175.63H167.532C167.261 175.63 167.002 175.737 166.811 175.928C166.619 176.119 166.512 176.377 166.512 176.647V181.904C166.512 182.465 166.968 182.92 167.532 182.92H172.997C173.131 182.92 173.263 182.894 173.387 182.843C173.511 182.792 173.623 182.717 173.718 182.623C173.813 182.528 173.888 182.416 173.939 182.293C173.991 182.169 174.017 182.037 174.017 181.904V176.647C174.017 176.513 173.991 176.381 173.939 176.258C173.888 176.135 173.813 176.022 173.718 175.928C173.623 175.834 173.511 175.759 173.387 175.708C173.263 175.657 173.131 175.63 172.997 175.63Z" fill="#4385AC"/>
<path d="M169.325 187.033H171.201C171.574 187.034 171.932 187.182 172.195 187.444C172.459 187.707 172.608 188.063 172.609 188.434C172.608 188.806 172.459 189.161 172.195 189.424C171.932 189.686 171.574 189.835 171.201 189.836H169.325C168.952 189.835 168.595 189.686 168.331 189.424C168.068 189.161 167.919 188.806 167.918 188.434C167.919 188.063 168.068 187.707 168.331 187.444C168.595 187.182 168.952 187.034 169.325 187.033Z" fill="#4385AC"/>
<path d="M136.18 53.759C135.161 50.9003 138.073 47.2603 142.686 45.6292C146.62 44.2376 150.52 44.7572 152.214 46.7146C152.652 47.2217 152.422 48.0139 151.79 48.2376L136.18 53.759Z" fill="#0F1111"/>
<path d="M135.37 49.4934C134.503 47.0593 136.982 43.9606 140.909 42.5716C144.258 41.3869 147.579 41.8294 149.021 43.4958C149.394 43.9274 149.199 44.6018 148.66 44.7924L135.37 49.4934Z" fill="#0F1111"/>
<path d="M148.103 51.5327L151.994 62.2519C152.415 63.5333 151.46 64.8516 150.107 64.8571L137.555 64.9103L148.103 51.5327Z" fill="#D9D9D9"/>
<path d="M149.551 58.3696L151.444 57.6485C152.233 57.3483 152.284 56.2558 151.528 55.8828L148.217 54.2496L149.551 58.3696ZM139.405 47.071L139.157 47.1519C138.908 47.2331 138.678 47.3622 138.479 47.5321C138.28 47.702 138.117 47.9093 137.998 48.1421C137.88 48.3749 137.808 48.6286 137.788 48.8889C137.768 49.1491 137.8 49.4107 137.881 49.6588L140.036 56.2184L148.816 53.3575L148.212 51.5201C147.014 47.8686 143.07 45.8771 139.405 47.071ZM136.146 58.0503L146.935 57.9982L147.038 79.2716C147.041 79.7879 146.415 80.0491 146.047 79.6848L136.203 69.9375L136.146 58.0503Z" fill="#D9D9D9"/>
<path d="M150.713 59.076L145.21 60.8694L142.921 53.8994L148.425 52.106L150.713 59.076Z" fill="#D9D9D9"/>
<path d="M136.606 46.5449L134.023 47.4587C131.2 48.4572 129.724 51.5461 130.726 54.3581L135.263 67.0868L151.692 61.2755L148.441 52.1559C146.729 47.3512 141.43 44.8389 136.606 46.5449Z" fill="#D9D9D9"/>
<path d="M149.949 62.421L151.309 62.2652C151.394 62.2556 151.475 62.227 151.547 62.1817C151.619 62.1364 151.68 62.0755 151.725 62.0036C151.77 61.9316 151.798 61.8505 151.807 61.7662C151.817 61.6819 151.807 61.5966 151.778 61.5167L151.238 60.0034L150.034 60.4295C149.88 60.4837 149.739 60.5676 149.618 60.6762C149.497 60.7848 149.399 60.916 149.329 61.0625C149.259 61.2089 149.219 61.3676 149.211 61.5296C149.202 61.6915 149.226 61.8535 149.281 62.0063C149.379 62.2826 149.656 62.4546 149.949 62.421Z" fill="#D9D9D9"/>
<path d="M136.257 65.3344L140.955 65.6949L134.855 48.5823C134.684 48.1001 134.326 47.7056 133.863 47.4856C133.399 47.2657 132.866 47.2383 132.382 47.4095L131.561 47.7C127.649 49.0835 125.893 53.6129 127.855 57.2573L130.025 61.2872C130.639 62.4285 131.532 63.3974 132.621 64.1047C133.71 64.8119 134.961 65.2348 136.257 65.3344Z" fill="#0F1111"/>
<path d="M131.278 50.3848L137.667 48.125L142.362 61.2984C142.533 61.776 142.607 62.2823 142.581 62.7885C142.555 63.2946 142.429 63.7907 142.21 64.2483C141.991 64.706 141.684 65.1162 141.306 65.4556C140.929 65.795 140.487 66.0569 140.008 66.2264L137.27 67.195L131.278 50.3848Z" fill="#0F1111"/>
<path d="M135.046 47.7108L142.568 45.0503L144.091 49.3234C144.261 49.801 144.336 50.3073 144.309 50.8135C144.283 51.3197 144.157 51.8157 143.939 52.2733C143.72 52.731 143.413 53.1412 143.035 53.4806C142.657 53.82 142.216 54.0819 141.736 54.2514L137.865 55.6207L135.046 47.7108Z" fill="#0F1111"/>
<path d="M135.545 58.8974C134.526 56.0387 129.961 55.044 125.349 56.675C121.415 58.0666 118.717 60.9205 118.642 63.5034C118.622 64.1723 119.303 64.6425 119.935 64.4188L135.545 58.8974Z" fill="#0F1111"/>
<path d="M139.946 61.4367C138.999 58.7789 134.755 57.8537 130.467 59.3707C126.809 60.6646 124.301 63.3175 124.231 65.7196C124.213 66.3413 124.845 66.7789 125.433 66.571L139.946 61.4367Z" fill="#0F1111"/>
<path d="M138.711 64.3312C140.936 63.5439 140.555 60.3165 138.21 60.0423C136.933 59.893 135.504 60.0467 134.084 60.5489C130.905 61.6739 128.797 64.1851 128.834 66.5487C128.844 67.1606 129.421 67.6178 129.933 67.437L138.711 64.3312Z" fill="#0F1111"/>
<path d="M140.605 66.0314C142.244 65.4515 141.964 63.0733 140.236 62.8714C139.295 62.7611 138.243 62.8746 137.197 63.2444C134.854 64.0729 133.301 65.9234 133.329 67.6647C133.336 68.1153 133.761 68.4525 134.138 68.3189L140.605 66.0314ZM136.051 53.3945C135.032 50.5357 130.467 49.541 125.855 51.1721C121.921 52.5637 119.223 55.4175 119.148 58.0004C119.128 58.6694 119.808 59.1396 120.441 58.9159L136.051 53.3945Z" fill="#0F1111"/>
<path d="M141.938 47.4213C140.918 44.5626 136.354 43.5679 131.742 45.199C127.807 46.5906 125.11 49.4444 125.035 52.0273C125.015 52.6962 125.695 53.1664 126.328 52.9427L141.938 47.4213Z" fill="#0F1111"/>
<path d="M202.293 100.215L198.627 102.858C196.52 103.861 194.099 103.593 192.256 102.316C191.854 102.044 191.485 101.726 191.157 101.369C191.115 101.292 191.086 101.213 191.055 101.142L190.945 100.886L185.948 95.9414L188.572 96.2129L196.419 97.1256L197.045 96.8205C197.169 96.8465 197.282 96.859 197.397 96.8639L202.127 97.1582C202.634 97.1913 202.293 100.215 202.293 100.215Z" fill="#D9D9D9"/>
<path d="M207.516 101.343C207.502 101.315 207.477 101.19 207.477 101.19C207.477 101.19 207.023 99.6265 207.017 99.6314C206.938 99.3696 206.856 99.1084 206.773 98.8479C206.726 98.6773 206.649 98.5163 206.545 98.3722C206.137 97.74 205.713 97.1172 205.275 96.5044C205.004 96.1526 204.703 95.8838 204.332 95.6824C203.774 95.2844 201.549 93.9683 201.549 93.9683L199.354 96.3991L201.527 96.8742L200.951 99.9251C200.951 99.9251 200.693 100.322 200.233 101.089C199.773 101.855 200.429 103.157 200.927 102.543L201.767 101.563L201.754 101.558C201.802 101.497 201.971 101.285 202.067 101.181C202.153 101.072 202.253 100.921 202.312 100.756C202.412 100.476 202.604 100.022 202.781 99.5983L202.851 100.226C202.851 100.226 202.729 100.764 202.46 101.715C202.19 102.666 203.307 103.852 203.657 103.069L204.183 101.791C204.257 101.584 204.329 101.447 204.417 101.199C204.504 101.021 204.55 100.828 204.568 100.648C204.608 100.302 204.662 99.7085 204.711 99.1699L205.06 99.6602L205.498 100.722C205.618 100.973 205.766 101.212 205.986 101.382C206.657 101.922 207.522 101.786 207.516 101.343Z" fill="#D9D9D9"/>
<path opacity="0.1" d="M207.516 101.343C207.502 101.315 207.477 101.19 207.477 101.19C207.477 101.19 207.023 99.6265 207.017 99.6314C206.938 99.3696 206.856 99.1084 206.773 98.8479C206.726 98.6773 206.649 98.5163 206.545 98.3722C206.137 97.74 205.713 97.1172 205.275 96.5044C205.004 96.1526 204.703 95.8838 204.332 95.6824C203.774 95.2844 201.549 93.9683 201.549 93.9683L199.354 96.3991L201.527 96.8742L200.951 99.9251C200.951 99.9251 200.693 100.322 200.233 101.089C199.773 101.855 200.429 103.157 200.927 102.543L201.767 101.563L201.754 101.558C201.802 101.497 201.971 101.285 202.067 101.181C202.153 101.072 202.253 100.921 202.312 100.756C202.412 100.476 202.604 100.022 202.781 99.5983L202.851 100.226C202.851 100.226 202.729 100.764 202.46 101.715C202.19 102.666 203.307 103.852 203.657 103.069L204.183 101.791C204.257 101.584 204.329 101.447 204.417 101.199C204.504 101.021 204.55 100.828 204.568 100.648C204.608 100.302 204.662 99.7085 204.711 99.1699L205.06 99.6602L205.498 100.722C205.618 100.973 205.766 101.212 205.986 101.382C206.657 101.922 207.522 101.786 207.516 101.343Z" fill="#0F1111"/>
<path d="M202.714 99.49C202.714 99.49 204.709 99.1969 206.564 98.9011C208.42 98.6053 207.855 96.9183 206.396 96.8895L202.503 96.813L202.714 99.49Z" fill="#D9D9D9"/>
<path d="M209.518 97.8915L209.505 97.8633L209.491 97.8356L209.479 97.8215L208.75 96.6433C208.507 96.2784 208.305 95.9282 208.157 95.6893C208.049 95.5345 207.954 95.408 207.79 95.2799C207.219 94.7928 206.644 94.3105 206.066 93.8329C205.737 93.5771 205.366 93.3757 204.95 93.2981L199.992 92.2165C199.189 92.0482 198.322 92.3218 197.808 92.9766L194.971 96.4125C194.201 97.3947 193.887 97.6114 192.715 97.7547L185.583 97.5951L184.892 103.738C184.981 103.745 193.484 103.451 193.569 103.458C193.392 103.455 194.265 103.504 194.265 103.504C195.949 103.544 195.94 103.448 197.124 103.297L197.607 103.217C199.895 102.923 200.432 99.881 202.714 99.4933L202.529 96.811L201.584 96.7785C200.639 96.7459 200.037 95.4873 200.622 95.4851C201.206 95.4829 204.989 95.4743 204.989 95.4743L206.699 96.8936L207.404 97.7938C207.577 98.0164 207.803 98.1924 208.062 98.3058C208.862 98.6821 209.649 98.3096 209.518 97.8915Z" fill="#D9D9D9"/>
<path d="M188.516 103.795L171.457 104.781C167.935 104.984 164.994 102.14 165.094 98.6278L165.229 93.8633L174.493 94.2352L188.943 96.2116L188.516 103.795ZM101.766 97.4631L117.148 73.6688C117.324 73.3873 117.553 73.143 117.823 72.9498C118.093 72.7567 118.399 72.6184 118.723 72.5429C119.047 72.4674 119.382 72.4562 119.71 72.5099C120.038 72.5637 120.353 72.6812 120.635 72.856L128.632 77.8002L111.861 102.873C111.635 103.237 111.339 103.552 110.99 103.802C110.641 104.051 110.246 104.23 109.828 104.327C109.41 104.425 108.977 104.439 108.553 104.37C108.129 104.301 107.723 104.149 107.358 103.923L103.265 101.255C101.73 100.305 100.813 98.991 101.766 97.4631Z" fill="#4385AC"/>
<path d="M109.196 131.232L103.33 110.561L106.309 110.395L113.751 110.046L115.427 126.857C115.427 126.857 109.273 131.605 109.196 131.232ZM122.583 134.317C122.1 134.777 121.461 134.972 121.04 134.58L116.94 130.333L118.414 127.456L122.635 133.169C122.776 133.33 122.849 133.539 122.84 133.753C122.83 133.967 122.738 134.169 122.583 134.317Z" fill="#D9D9D9"/>
<path d="M120.601 134.842C120.118 135.303 119.077 135.726 118.657 135.335L114.674 131.123L116.148 128.246L120.599 134.262C120.7 134.391 120.759 134.72 120.608 134.837L120.601 134.842Z" fill="#D9D9D9"/>
<path d="M118.642 135.918C118.159 136.378 117.086 136.761 116.665 136.369L112.715 132.199L114.189 129.321L118.64 135.338C118.741 135.467 118.8 135.796 118.649 135.913L118.642 135.918Z" fill="#D9D9D9"/>
<path d="M116.679 136.717C116.267 137.161 115.68 137.567 115.245 137.192L110.57 133.128L111.835 130.405L116.622 136.16C116.73 136.283 116.817 136.599 116.686 136.712L116.679 136.717Z" fill="#D9D9D9"/>
<path d="M113.973 133.128L118.04 130.144C118.258 129.983 118.438 129.777 118.566 129.539C118.694 129.3 118.768 129.037 118.781 128.767C118.794 128.497 118.747 128.228 118.643 127.978C118.538 127.729 118.379 127.506 118.178 127.325L114.146 123.715C114.017 123.6 113.852 123.532 113.678 123.523C113.504 123.514 113.333 123.565 113.193 123.667L110.826 125.386C108.647 126.969 108.164 130.039 109.752 132.21L109.966 132.502C110.895 133.772 112.698 134.053 113.973 133.128Z" fill="#D9D9D9"/>
<path d="M112.506 126.469C110.642 127.823 110.335 130.567 111.821 132.598C113.308 134.629 116.024 135.177 117.889 133.823C119.753 132.469 120.06 129.725 118.574 127.694C117.087 125.663 114.371 125.115 112.506 126.469Z" fill="#D9D9D9"/>
<path d="M121.303 126.805C120.937 126.525 120.613 126.194 120.341 125.824C119.893 125.222 119.292 124.751 118.599 124.46L116.663 123.713C115.56 123.291 114.734 122.968 113.209 123.604L110.358 123.927L108.805 127.478C108.751 127.601 108.725 127.734 108.728 127.868C108.731 128.002 108.763 128.133 108.823 128.254C108.882 128.374 108.967 128.48 109.072 128.564C109.177 128.648 109.299 128.709 109.429 128.741L109.893 128.857C110.557 128.709 111.246 128.715 111.907 128.873C112.569 129.032 113.185 129.339 113.709 129.771L113.735 129.795L113.764 129.821L121.605 131.772L119.723 129.619L119.286 128.719C119.26 128.664 119.252 128.602 119.263 128.542C119.274 128.482 119.304 128.427 119.348 128.384C119.385 128.349 119.431 128.325 119.481 128.312C119.53 128.299 119.582 128.299 119.632 128.311C119.658 128.318 120.028 128.409 120.053 128.419C120.641 129.095 122.332 127.609 121.303 126.805Z" fill="#D9D9D9"/>
<path d="M104.645 115.578L101.029 103.721C100.396 101.49 100.265 100.681 101.085 98.5111L104.626 93.4626L113.373 91.9233L113.704 106.457L114.138 113.904L104.645 115.578Z" fill="#4385AC"/>
<path d="M121.016 127.4L120.597 129.642C120.534 129.98 120.597 130.329 120.773 130.624C120.95 130.919 121.228 131.14 121.556 131.246L121.706 131.295C121.757 131.311 121.81 131.317 121.863 131.313C121.917 131.309 121.968 131.294 122.016 131.27C122.063 131.246 122.105 131.213 122.14 131.172C122.174 131.132 122.201 131.085 122.217 131.035L122.936 128.819C122.998 128.626 122.981 128.418 122.889 128.238C122.797 128.058 122.637 127.922 122.444 127.86L121.016 127.4Z" fill="#D9D9D9"/>
<path d="M122.614 127.695L119.322 124.866C119.187 124.751 119.03 124.664 118.86 124.612C118.691 124.56 118.512 124.544 118.335 124.565C118.159 124.585 117.989 124.642 117.836 124.732C117.682 124.821 117.549 124.941 117.445 125.085L116.916 125.813L121.907 130.067L122.723 129.117C123.085 128.694 123.037 128.058 122.614 127.695Z" fill="#D9D9D9"/>
</g>
<g clip-path="url(#clip3_2959_29363)">
<path d="M89.5879 104.534H336.533V114.773H89.5879V104.534Z" fill="#D9D9D9"/>
<path d="M301.068 111.847H314.298V123.549H301.068V111.847Z" fill="#D9D9D9"/>
<path d="M331.279 212.395L307.683 124.873L284.087 212.395L279.51 211.173L307.683 106.671L335.856 211.173L331.279 212.395ZM111.052 111.848H124.281V123.55H111.052V111.848Z" fill="#D9D9D9"/>
<path d="M141.263 212.395L117.668 124.873L94.0718 212.395L89.4941 211.173L117.668 106.671L145.84 211.173L141.263 212.395Z" fill="#D9D9D9"/>
</g>
<g clip-path="url(#clip4_2959_29363)">
<path d="M298.605 103.166L297.641 102.678C295.851 101.77 294.348 100.388 293.298 98.6825C292.249 96.9775 291.693 95.0165 291.693 93.0165V59.4341H263.654V93.0165C263.655 95.0165 263.099 96.9776 262.049 98.6827C260.999 100.388 259.496 101.77 257.706 102.678L256.742 103.166C256.062 103.511 256.308 104.533 257.072 104.533H298.275C299.038 104.534 299.285 103.511 298.605 103.166Z" fill="#4385AC"/>
<path d="M348.562 0.731445H206.785C205.823 0.731445 204.9 1.11218 204.219 1.78991C203.539 2.46763 203.156 3.38681 203.156 4.34525V70.4295L205.334 72.2502V77.3442C205.334 78.3026 205.716 79.2218 206.397 79.8995C207.077 80.5772 208 80.958 208.963 80.958H346.384C347.347 80.958 348.27 80.5772 348.95 79.8995C349.631 79.2218 350.013 78.3026 350.013 77.3442V73.0372L352.191 70.4288V4.34525C352.191 3.38681 351.808 2.46763 351.128 1.78991C350.447 1.11218 349.524 0.731445 348.562 0.731445Z" fill="#4385AC"/>
<path d="M352.191 70.4297H203.156V79.5126C203.156 80.4711 203.539 81.3903 204.219 82.068C204.9 82.7457 205.823 83.1264 206.785 83.1264H348.562C349.524 83.1264 350.447 82.7457 351.128 82.068C351.808 81.3903 352.191 80.4711 352.191 79.5126V70.4297Z" fill="#59A5D5"/>
<path d="M208.272 5.62158H347.074V65.5992H208.272V5.62158Z" fill="white"/>
</g>
<g clip-path="url(#clip5_2959_29363)">
<path d="M269.56 26.8727H286.195V14.4227C286.195 10.3847 282.953 7.11084 278.954 7.11084H276.801C272.802 7.11084 269.56 10.3847 269.56 14.4227L269.56 26.8727Z" fill="#0F1111"/>
<path d="M291.599 72.7853H266.379L262.085 46.0132H292.342L294.232 51.5928L291.981 58.9991L291.599 72.7853Z" fill="#59A5D5"/>
<path d="M294.521 36.3096L307.716 62.2758L302.007 64.9337L300.91 64.9832L285.783 38.0691L294.521 36.3096ZM263.54 42.992H269.687V72.785H263.54V42.992Z" fill="#59A5D5"/>
<path d="M299.83 48.3606L258.531 54.2366V42.0623C258.531 37.1394 262.483 33.1489 267.359 33.1489H288.425C289.938 33.1489 291.417 33.6006 292.676 34.447C293.935 35.2935 294.918 36.497 295.502 37.9061L299.83 48.3606Z" fill="#59A5D5"/>
<path d="M258.873 39.5935L253.51 60.8794L253.056 63.5869L260.798 61.15L267.685 38.0601L260.561 38.2351C260.171 38.2447 259.795 38.3826 259.491 38.6278C259.186 38.873 258.969 39.2122 258.873 39.5935Z" fill="#59A5D5"/>
<path d="M282.013 63.4037L282.764 67.4546L303.158 68.2647C304.362 68.3126 305.541 67.9161 306.476 67.1493C307.411 66.3825 308.037 65.298 308.238 64.0987L308.285 63.8157C308.348 63.4397 308.33 63.0544 308.232 62.6862C308.133 62.318 307.957 61.9756 307.716 61.6823C307.475 61.389 307.173 61.1519 306.833 60.987C306.492 60.8222 306.121 60.7336 305.743 60.7272L301.073 60.6488C300.035 60.6309 298.997 60.6997 297.97 60.8542L282.013 63.4037Z" fill="#D9D9D9"/>
<path d="M280.08 67.3531C280.287 67.4362 280.509 67.4791 280.733 67.4791H289.333L289.47 67.398V63.5614H285.761C285.63 63.5938 285.497 63.6109 285.362 63.6125L284.259 63.6099L280.219 63.2C279.751 63.1502 279.282 63.2781 278.902 63.5588L277.809 64.3617L275.653 64.1061C275.161 64.0431 274.662 64.092 274.191 64.2491L269.819 65.6922C269.788 65.7024 269.759 65.7187 269.733 65.7403C269.708 65.7619 269.687 65.7883 269.672 65.8179C269.657 65.8476 269.648 65.88 269.645 65.9133C269.643 65.9465 269.646 65.98 269.657 66.0117C269.658 66.0133 269.658 66.0154 269.658 66.0154L269.663 66.0298C269.748 66.2425 269.902 66.4194 270.101 66.531C270.299 66.6426 270.529 66.6822 270.753 66.6432L274.907 65.91L278.999 66.9199L280.08 67.3531Z" fill="#D9D9D9"/>
<g opacity="0.1">
<path d="M282.014 63.4042L282.765 67.4551L303.159 68.2652C304.363 68.3131 305.542 67.9166 306.477 67.1498C307.412 66.383 308.038 65.2984 308.239 64.0991L308.286 63.8162C308.349 63.4402 308.331 63.0549 308.232 62.6867C308.134 62.3185 307.958 61.9761 307.717 61.6828C307.476 61.3895 307.174 61.1524 306.834 60.9875C306.493 60.8227 306.121 60.7341 305.744 60.7277L301.074 60.6492C300.036 60.6314 298.998 60.7001 297.971 60.8547L282.014 63.4042Z" fill="#0F1111"/>
<path d="M280.081 67.3536C280.288 67.4367 280.51 67.4796 280.734 67.4796H289.334L289.471 67.3985V63.5619H285.762C285.631 63.5942 285.498 63.6114 285.363 63.613L284.26 63.6104L280.22 63.2005C279.752 63.1507 279.283 63.2786 278.903 63.5593L277.809 64.3621L275.654 64.1066C275.162 64.0436 274.663 64.0924 274.192 64.2496L269.82 65.6926C269.789 65.7028 269.76 65.7192 269.734 65.7408C269.709 65.7624 269.688 65.7888 269.673 65.8184C269.658 65.8481 269.649 65.8805 269.646 65.9138C269.644 65.947 269.647 65.9805 269.658 66.0122C269.659 66.0138 269.659 66.0158 269.659 66.0158L269.664 66.0303C269.749 66.243 269.903 66.4198 270.102 66.5315C270.3 66.6431 270.53 66.6827 270.754 66.6437L274.908 65.9105L279 66.9204L280.081 67.3536Z" fill="#0F1111"/>
</g>
<path d="M279.336 63.9194L278.585 67.9703L258.191 68.7799C256.987 68.8278 255.808 68.4313 254.873 67.6645C253.938 66.8977 253.312 65.8131 253.111 64.6138L253.064 64.3309C253.001 63.9549 253.019 63.5696 253.118 63.2014C253.216 62.8332 253.392 62.4908 253.633 62.1975C253.874 61.9042 254.176 61.6671 254.516 61.5022C254.857 61.3374 255.229 61.2488 255.606 61.2424L260.276 61.1639C261.314 61.1459 262.351 61.2151 263.379 61.3694L279.336 63.9194Z" fill="#D9D9D9"/>
<path d="M281.269 67.8692C281.061 67.9523 280.839 67.9952 280.615 67.9952H272.016L271.879 67.9141V64.0775H275.587C275.717 64.108 275.85 64.1286 275.986 64.1286L277.09 64.126L281.129 63.7161C281.597 63.6663 282.067 63.7942 282.447 64.0749L283.54 64.8778L285.695 64.6222C286.187 64.5592 286.687 64.6081 287.158 64.7652L291.529 66.2083C291.662 66.2511 291.734 66.3941 291.692 66.5279C291.69 66.5294 291.69 66.5315 291.69 66.5315L291.685 66.5459C291.601 66.7586 291.446 66.9355 291.248 67.0471C291.05 67.1587 290.819 67.1983 290.596 67.1593L286.441 66.4262L282.35 67.436L281.269 67.8692Z" fill="#D9D9D9"/>
<path d="M276.767 33.5905C280.799 33.5905 284.067 30.2905 284.067 26.2198C284.067 22.1491 280.799 18.8491 276.767 18.8491C272.736 18.8491 269.468 22.1491 269.468 26.2198C269.468 30.2905 272.736 33.5905 276.767 33.5905Z" fill="#0F1111"/>
<path d="M278.907 33.5905C282.938 33.5905 286.207 30.2905 286.207 26.2198C286.207 22.1491 282.938 18.8491 278.907 18.8491C274.876 18.8491 271.607 22.1491 271.607 26.2198C271.607 30.2905 274.876 33.5905 278.907 33.5905Z" fill="#0F1111"/>
<path d="M276.926 42.4124L273.039 32.5047V25.0132H282.176V34.2441L277.97 42.4651C277.743 42.9076 277.107 42.875 276.926 42.4124Z" fill="#D9D9D9"/>
<path d="M284.306 14.1225C284.306 13.1541 283.925 12.2254 283.247 11.5406C282.569 10.8559 281.649 10.4712 280.69 10.4712H276.65C273.478 10.4712 270.907 13.0671 270.907 16.2697V22.8474C270.907 23.8361 271.283 24.7876 271.956 25.5053L275.258 29.0259H279.956L283.258 25.5053C283.931 24.7874 284.306 23.8362 284.306 22.8474V19.7486V14.1225Z" fill="#D9D9D9"/>
<path d="M274.611 14.3208H279.667V20.8107H274.611V14.3208Z" fill="#D9D9D9"/>
<path d="M271.139 22.6478H274.92C275.172 22.6478 275.377 22.4413 275.377 22.1868V18.3961C275.377 18.1416 275.172 17.9351 274.92 17.9351H271.139C270.52 17.9351 269.927 18.1833 269.489 18.6252C269.052 19.0671 268.806 19.6665 268.806 20.2914C268.806 20.9164 269.052 21.5158 269.489 21.9577C269.927 22.3996 270.52 22.6478 271.139 22.6478Z" fill="#D9D9D9"/>
<path d="M279.97 9.14062H275.488L276.489 12.9499C276.779 14.0511 277.421 15.0248 278.315 15.7195C279.209 16.4141 280.306 16.7907 281.434 16.7906H284.677V13.8916C284.676 11.2678 282.569 9.14062 279.97 9.14062Z" fill="#0F1111"/>
<path d="M280.817 16.7755C281.362 16.7755 281.805 17.2221 281.805 17.773V21.2048C281.805 22.6696 282.501 24.0445 283.676 24.9026C284.77 25.7008 285.95 26.5666 286.015 26.6332V21.6081H285.315V14.2627H280.816L280.817 16.7755Z" fill="#0F1111"/>
</g>
<g clip-path="url(#clip6_2959_29363)">
<path d="M215.912 41.9038H282.601V139.907H215.912V41.9038Z" fill="#808080"/>
<path d="M249.255 71.746C254.485 71.746 258.725 67.4922 258.725 62.2448C258.725 56.9975 254.485 52.7437 249.255 52.7437C244.026 52.7437 239.786 56.9975 239.786 62.2448C239.786 67.4922 244.026 71.746 249.255 71.746Z" fill="#D9D9D9"/>
<path d="M249.255 61.8684C250.838 61.8684 252.121 60.5811 252.121 58.993C252.121 57.405 250.838 56.1177 249.255 56.1177C247.673 56.1177 246.39 57.405 246.39 58.993C246.39 60.5811 247.673 61.8684 249.255 61.8684Z" fill="#808080"/>
<path d="M249.256 62.4844C248.116 62.4844 247.022 62.9388 246.216 63.7477C245.41 64.5566 244.957 65.6537 244.957 66.7976V69.2949H253.555V66.7976C253.555 65.6537 253.102 64.5566 252.296 63.7477C251.489 62.9388 250.396 62.4844 249.256 62.4844Z" fill="#808080"/>
<path d="M224.878 77.4951H273.635V84.3489H224.878V77.4951ZM224.878 89.9027H273.635V96.7566H224.878V89.9027ZM224.878 102.31H273.635V109.164H224.878V102.31ZM224.878 114.718H255.027V121.571H224.878V114.718Z" fill="#D9D9D9"/>
</g>
<g clip-path="url(#clip7_2959_29363)">
<path d="M57.7363 80.3452H64.534V50.1953C60.7799 50.1953 57.7363 53.2443 57.7363 57.0052V80.3452Z" fill="#0F1111"/>
<path d="M73.4669 68.5339H83.3185V53.2061H67.292V62.3479C67.2926 65.7644 70.057 68.5339 73.4669 68.5339Z" fill="#D9D9D9"/>
<path d="M73.4606 87.4399L65.0586 78.5446L70.3039 65.1436L76.157 67.4772L80.802 69.3715L73.4606 87.4399Z" fill="#D9D9D9"/>
<path d="M85.6632 53.7251V57.629C85.6632 57.7708 85.636 57.9114 85.5834 58.0428L85.0669 59.3294C84.8936 59.7618 85.008 60.2566 85.3541 60.568L85.6637 60.847V68.3966C85.6638 68.6886 85.6062 68.9777 85.4944 69.2474C85.3826 69.517 85.2188 69.7619 85.0123 69.968C84.8058 70.174 84.5607 70.3372 84.2911 70.4482C84.0215 70.5591 83.7326 70.6156 83.4412 70.6145L69.457 70.5572L69.5142 65.7857L85.6632 53.7251Z" fill="#D9D9D9"/>
<path d="M83.7184 65.3448L86.7786 63.7531C86.9386 63.6699 87.0759 63.5488 87.1785 63.4004C87.2811 63.2519 87.346 63.0806 87.3675 62.9014C87.3891 62.7221 87.3666 62.5403 87.302 62.3717C87.2374 62.2031 87.1327 62.0529 86.997 61.934L83.7178 59.0615L83.7184 65.3448Z" fill="#D9D9D9"/>
<path d="M78.8062 45.6123H78.4751C77.8026 45.6123 77.1577 45.8799 76.6821 46.3563C76.2066 46.8327 75.9395 47.4789 75.9395 48.1526V56.9744H87.6814V54.5035C87.6814 49.5926 83.7077 45.6123 78.8062 45.6123Z" fill="#0F1111"/>
<path d="M77.294 56.8489H64.0996V53.9035C64.0996 49.198 67.9069 45.3833 72.6039 45.3833H75.3823C75.8893 45.3833 76.3756 45.5851 76.7341 45.9442C77.0926 46.3034 77.294 46.7905 77.294 47.2985V56.8489Z" fill="#0F1111"/>
<path d="M74.1283 67.2366H71.083C69.8539 67.2365 68.6751 66.7473 67.806 65.8766C66.9369 65.0059 66.4485 63.825 66.4484 62.5937V58.5804C66.4482 57.953 66.1994 57.3514 65.7567 56.9077C65.3139 56.464 64.7134 56.2146 64.0872 56.2143H63.499V53.7725H79.8201L74.1283 67.2366Z" fill="#0F1111"/>
<path d="M65.2729 57.6754C65.043 57.6754 64.8226 57.5839 64.6601 57.4211C64.4976 57.2583 64.4062 57.0375 64.4062 56.8072V49.4058C64.4062 49.1755 64.4976 48.9547 64.6601 48.7919C64.8226 48.6291 65.043 48.5376 65.2729 48.5376C65.5027 48.5376 65.7231 48.6291 65.8856 48.7919C66.0482 48.9547 66.1395 49.1755 66.1395 49.4058V56.8072C66.1395 57.0375 66.0482 57.2583 65.8856 57.4211C65.7231 57.5839 65.5027 57.6754 65.2729 57.6754Z" fill="#59A5D5"/>
<path d="M76.3086 63.6166H78.2769L78.0898 59.4882C78.0606 58.8459 77.7854 58.2395 77.3214 57.7953C76.8574 57.3511 76.2404 57.1031 75.5986 57.103H75.4558C74.0855 57.103 73.1212 58.4527 73.5638 59.7521L74.4171 62.26C74.5513 62.6557 74.806 62.9994 75.1452 63.2428C75.4845 63.4861 75.8913 63.6168 76.3086 63.6166Z" fill="#D9D9D9"/>
<path d="M62.2946 73.1205C59.1073 74.7208 56.2926 76.9762 54.0339 79.7397C51.7753 82.5031 50.1235 85.7125 49.1863 89.1585L46.1976 100.149C45.528 102.612 43.9689 104.737 41.823 106.113L39.4098 107.783C36.2599 109.962 33.9683 113.174 32.9305 116.865L30.8789 124.164L70.9561 136.926V124.86L71.0999 112.329L75.1603 105.368L78.3713 103.686C79.4528 103.12 80.3555 102.263 80.9784 101.212C81.6013 100.16 81.9196 98.956 81.8978 97.7337L81.7551 89.7031L80.2796 82.9823C79.9861 81.6457 79.2957 80.4295 78.2991 79.4934L72.1485 73.7172C70.7037 72.7578 69.0318 72.1975 67.3016 72.0927C65.5714 71.9879 63.8442 72.3424 62.2946 73.1205Z" fill="#59A5D5"/>
<path d="M102.832 99.1628L97.9749 74.5692C97.9119 74.2509 97.5942 74.0425 97.2649 74.1033L90.7237 77.1703L90.0547 95.6704C90.1148 96.7047 91.688 97.1255 91.889 98.143L92.684 102.168C93.1699 104.63 103.438 102.23 102.832 99.1628Z" fill="#D9D9D9"/>
<path d="M85.5693 75.4986L86.9051 77.103C87.6308 77.9681 88.6331 78.5548 89.7417 78.7635L91.9834 79.1935L86.8843 73.0376L85.7542 73.9127C85.6352 74.0025 85.5356 74.1156 85.4614 74.245C85.3873 74.3745 85.3401 74.5177 85.3229 74.666C85.3056 74.8143 85.3185 74.9645 85.3609 75.1076C85.4032 75.2507 85.4742 75.3837 85.5693 75.4986Z" fill="#D9D9D9"/>
<path d="M90.0673 78.2375C89.2417 77.2188 89.3255 75.8234 90.2545 75.1207C91.1835 74.4181 92.6059 74.6751 93.4315 75.6943C94.2571 76.713 94.1733 78.1084 93.2443 78.8111C92.3153 79.5131 90.8929 79.2567 90.0673 78.2375Z" fill="#D9D9D9"/>
<path d="M91.9893 77.0816L86.4806 70.2833C86.1103 69.826 85.4257 69.7456 84.9525 70.1033L84.7277 70.2734C84.6031 70.3653 84.4983 70.4817 84.4199 70.6154C84.3415 70.7491 84.2911 70.8974 84.2717 71.0513C84.2523 71.2051 84.2643 71.3613 84.3071 71.5104C84.3498 71.6594 84.4224 71.7982 84.5203 71.9183L89.9522 78.6217L91.9893 77.0816Z" fill="#D9D9D9"/>
<path d="M97.6879 74.1672L94.289 69.9722C93.7119 69.2598 92.7684 68.9212 91.8498 69.0971L86.333 70.1511L92.665 77.9652L97.6879 74.1672Z" fill="#D9D9D9"/>
<path d="M102.053 101.639L101.37 102.943C101.049 103.558 100.61 104.102 100.078 104.546C99.5454 104.989 98.931 105.323 98.2697 105.528C97.6084 105.733 96.9132 105.804 96.2241 105.739C95.5349 105.674 94.8655 105.473 94.2542 105.147L69.8477 92.1497L77.3923 78.9263L101.1 97.2759C101.746 97.7752 102.195 98.4862 102.369 99.2841C102.543 100.082 102.431 100.916 102.053 101.639Z" fill="#59A5D5"/>
<path d="M135.84 195.397L135.674 194.919C135.537 194.524 135.303 194.17 134.994 193.889C134.685 193.608 134.311 193.41 133.905 193.312L124.952 191.143C123.255 190.733 121.756 189.739 120.714 188.336L118.657 185.563C118.424 185.25 118.122 184.996 117.775 184.821C117.427 184.646 117.044 184.555 116.655 184.555H108.51V186.294L107.458 189.178C106.773 191.056 106.431 193.043 106.449 195.042L106.462 196.505H119.135L119.136 196.505H135.053C135.186 196.505 135.317 196.474 135.435 196.413C135.554 196.352 135.655 196.263 135.732 196.155C135.809 196.046 135.859 195.921 135.878 195.789C135.897 195.657 135.884 195.523 135.84 195.397Z" fill="#59A5D5"/>
<path d="M106.448 196.274H135.73V198.477H106.448V196.274Z" fill="#59A5D5"/>
<path d="M107.25 188.791L128.594 184.79L103.809 131.531C102.434 128.711 98.9683 127.639 96.246 129.192L82.5068 137.033L85.8005 153.491C86.5965 157.469 88.237 161.228 90.6108 164.514L107.25 188.791Z" fill="#4385AC"/>
<path d="M103.464 135.481C104.843 132.837 103.396 129.597 100.51 128.863L57.8947 117.289C53.8089 116.081 33.1126 116.157 33.1126 116.157L30.5757 124.403C27.0042 136.011 35.676 147.766 47.801 147.753L78.4084 147.716L99.2573 143.55L103.464 135.481Z" fill="#4385AC"/>
<path d="M102.255 89.2619L100.966 81.6914H90.2422L90.3739 90.4229C90.4028 92.323 90.6807 94.211 91.2007 96.0388L93.4111 103.803C93.594 104.446 93.9779 105.013 94.5062 105.421C95.0345 105.829 95.6795 106.057 96.3466 106.071L98.0422 106.106C99.2605 106.132 100.444 105.7 101.361 104.896C102.278 104.092 102.862 102.973 102.998 101.76L102.908 96.3021C102.87 93.9421 102.651 91.5885 102.255 89.2619Z" fill="#59A5D5"/>
<path d="M90.2309 80.2172H102.274V84.6414H90.2309V80.2172ZM79.5941 79.8155L64.3291 72.4147L68.624 68.1514L79.8616 73.247L79.5941 79.8155Z" fill="#59A5D5"/>
</g>
<g clip-path="url(#clip8_2959_29363)">
<path d="M47.0039 148.291H51.9069V182.796H47.0039V148.291Z" fill="#D9D9D9"/>
<path d="M76.2822 149.044H32.8088C26.8803 149.044 22.0572 144.223 22.0572 138.296V127.81C22.0578 127.137 21.9333 126.47 21.6901 125.842L4.44262 81.2165C4.16587 80.5004 4.185 79.7037 4.49581 79.0018C4.80661 78.2998 5.38362 77.75 6.09991 77.4733C6.8162 77.1967 7.61308 77.2158 8.31527 77.5265C9.01745 77.8372 9.5674 78.4141 9.84415 79.1301L27.0911 123.756C27.592 125.049 27.8484 126.424 27.8473 127.81V138.295C27.8473 141.03 30.0727 143.255 32.8082 143.255H76.2816C77.0496 143.255 77.7861 143.56 78.3292 144.102C78.8723 144.645 79.1774 145.381 79.1775 146.149C79.1776 146.917 78.8726 147.653 78.3296 148.196C77.7866 148.739 77.0501 149.044 76.2822 149.044Z" fill="#D9D9D9"/>
<path d="M59.0163 150.404C58.7091 150.404 58.4145 150.282 58.1973 150.065C57.9801 149.848 57.8581 149.553 57.8581 149.246V147.634L62.3233 132.147C62.4449 131.725 62.3586 131.315 62.0656 130.926C61.5751 130.274 60.6307 129.869 59.6017 129.869H38.2619C37.2005 129.869 36.2427 130.292 35.7633 130.974C35.4789 131.378 35.4135 131.801 35.5681 132.232L41.1659 147.82V149.15C41.1659 149.457 41.0439 149.752 40.8267 149.969C40.6095 150.186 40.315 150.308 40.0078 150.308C39.7007 150.308 39.4061 150.186 39.1889 149.969C38.9717 149.752 38.8497 149.457 38.8497 149.15V148.223L33.3879 133.014C32.9814 131.883 33.1569 130.654 33.8685 129.642C34.7887 128.335 36.4309 127.554 38.2619 127.554H59.6023C61.3707 127.554 62.9834 128.294 63.9169 129.535C64.6494 130.508 64.8741 131.664 64.5492 132.789L60.1744 147.962V149.247C60.1741 149.554 60.0519 149.848 59.8348 150.065C59.6176 150.282 59.3232 150.404 59.0163 150.404ZM14.3251 191.443H12.0088V186.122L12.845 185.881C24.3487 182.555 36.7697 180.831 49.7639 180.76L49.7767 183.075C37.3099 183.144 25.3881 184.755 14.3245 187.866L14.3251 191.443Z" fill="#808080"/>
<path d="M87.5327 191.443H85.2164V187.866C74.1522 184.755 62.2304 183.144 49.7637 183.075L49.7764 180.76C62.7707 180.832 75.1922 182.555 86.6959 185.881L87.5321 186.122V191.443H87.5327Z" fill="#808080"/>
<path d="M72.1021 191.443H69.7859V187.714C63.536 184.703 56.809 183.143 49.7803 183.075L49.8023 180.76C57.4274 180.833 64.715 182.582 71.4623 185.958L72.1021 186.278V191.443Z" fill="#808080"/>
<path d="M69.2243 191.058H71.2563C71.9361 191.058 72.4874 191.609 72.4874 192.289V195.531H65.3782L65.3736 194.938C65.3696 194.43 65.4663 193.926 65.658 193.455C65.8497 192.985 66.1328 192.557 66.4907 192.196C66.8487 191.836 67.2746 191.549 67.7437 191.354C68.2129 191.159 68.7161 191.058 69.2243 191.058ZM14.2953 191.058H12.2633C11.9368 191.058 11.6237 191.188 11.3928 191.419C11.1619 191.649 11.0322 191.962 11.0322 192.289V195.531H18.1414L18.1461 194.938C18.15 194.43 18.0534 193.926 17.8616 193.455C17.6699 192.985 17.3869 192.557 17.0289 192.196C16.6709 191.836 16.2451 191.549 15.7759 191.354C15.3067 191.159 14.8035 191.058 14.2953 191.058ZM85.0682 191.058H87.1001C87.78 191.058 88.3312 191.609 88.3312 192.289V195.531H81.222L81.2174 194.938C81.2134 194.43 81.3101 193.926 81.5018 193.455C81.6936 192.985 81.9766 192.557 82.3346 192.196C82.6925 191.836 83.1184 191.549 83.5876 191.354C84.0567 191.159 84.56 191.058 85.0682 191.058Z" fill="#808080"/>
<path d="M69.3457 198.478C71.0813 198.478 72.4883 197.072 72.4883 195.337C72.4883 193.601 71.0813 192.195 69.3457 192.195C67.6101 192.195 66.2031 193.601 66.2031 195.337C66.2031 197.072 67.6101 198.478 69.3457 198.478Z" fill="#808080"/>
<path d="M85.1895 198.478C86.9251 198.478 88.3321 197.072 88.3321 195.337C88.3321 193.601 86.9251 192.195 85.1895 192.195C83.4539 192.195 82.0469 193.601 82.0469 195.337C82.0469 197.072 83.4539 198.478 85.1895 198.478Z" fill="#808080"/>
<path d="M14.1758 198.478C15.9114 198.478 17.3184 197.072 17.3184 195.337C17.3184 193.601 15.9114 192.195 14.1758 192.195C12.4402 192.195 11.0332 193.601 11.0332 195.337C11.0332 197.072 12.4402 198.478 14.1758 198.478Z" fill="#808080"/>
</g>
<g clip-path="url(#clip9_2959_29363)">
<path d="M253.234 48.475C253.229 48.4747 253.225 48.4751 253.221 48.4722C252.628 48.2875 252.206 47.6529 252.258 46.8923L253.116 40.9958C253.145 40.797 253.273 40.6243 253.458 40.5367L254.126 40.2199C254.367 40.1056 254.643 40.0895 254.892 40.1754C255.142 40.2613 255.345 40.4421 255.457 40.6779L255.578 40.9335C255.638 41.0603 255.65 41.2048 255.612 41.3411L253.698 48.1591C253.688 48.2096 253.669 48.2579 253.64 48.3011C253.611 48.3444 253.574 48.3818 253.531 48.4111C253.488 48.4405 253.439 48.4612 253.388 48.4722C253.337 48.4831 253.285 48.4841 253.234 48.475Z" fill="#D9D9D9"/>
<path d="M250.814 48.5594C250.809 48.5592 250.805 48.5596 250.801 48.5567C250.208 48.372 249.787 47.7374 249.838 46.9768L250.696 41.0803C250.725 40.8815 250.853 40.7087 251.038 40.6212L251.706 40.3044C251.947 40.19 252.223 40.174 252.472 40.2599C252.722 40.3458 252.925 40.5265 253.037 40.7624L253.158 41.0175C253.218 41.1443 253.23 41.2888 253.192 41.4251L251.278 48.2435C251.268 48.2941 251.249 48.3424 251.22 48.3856C251.191 48.4289 251.154 48.4662 251.111 48.4956C251.068 48.5249 251.019 48.5457 250.968 48.5566C250.917 48.5676 250.865 48.5686 250.814 48.5594Z" fill="#D9D9D9"/>
<path d="M248.27 48.1914C248.265 48.1914 248.261 48.19 248.258 48.1875C247.725 47.9523 247.4 47.3136 247.531 46.6071L248.968 41.1763C249.017 40.9932 249.155 40.8449 249.337 40.7825L249.994 40.5563C250.232 40.4746 250.49 40.4886 250.714 40.5952C250.937 40.7019 251.107 40.8925 251.186 41.1251L251.271 41.3762C251.314 41.5016 251.309 41.6381 251.259 41.7617L248.737 47.944C248.722 47.9903 248.699 48.0335 248.667 48.071C248.636 48.1085 248.597 48.1397 248.554 48.1627C248.51 48.1857 248.463 48.2 248.414 48.205C248.365 48.2099 248.316 48.2053 248.27 48.1914Z" fill="#D9D9D9"/>
<path d="M246.442 48.0284C246.438 48.0282 246.435 48.0271 246.432 48.0252C245.933 47.8249 245.614 47.2466 245.711 46.5918L246.596 42.3408C246.615 42.257 246.655 42.1789 246.712 42.1136C246.769 42.0482 246.842 41.9977 246.923 41.9666L247.522 41.7378C247.629 41.697 247.743 41.6772 247.857 41.6796C247.971 41.682 248.083 41.7065 248.187 41.7517C248.29 41.797 248.383 41.8621 248.461 41.9434C248.539 42.0246 248.599 42.1204 248.638 42.2253L248.725 42.4542C248.768 42.568 248.768 42.6939 248.726 42.8093L246.866 47.7862C246.854 47.8293 246.833 47.8698 246.805 47.9054C246.777 47.9409 246.743 47.9708 246.703 47.9933C246.664 48.0158 246.621 48.0305 246.576 48.0365C246.531 48.0425 246.486 48.0398 246.442 48.0284Z" fill="#D9D9D9"/>
</g>
</g>
<defs>
<clipPath id="clip0_2959_29363">
<rect width="352" height="200.066" fill="white" transform="translate(0.19043 0.731445)"/>
</clipPath>
<clipPath id="clip1_2959_29363">
<rect width="51.6114" height="122.359" fill="white" transform="translate(119.069 74.3794)"/>
</clipPath>
<clipPath id="clip2_2959_29363">
<rect width="109.021" height="149.615" fill="white" transform="translate(100.512 41.9038)"/>
</clipPath>
<clipPath id="clip3_2959_29363">
<rect width="247.038" height="93.9438" fill="white" transform="translate(89.4951 104.534)"/>
</clipPath>
<clipPath id="clip4_2959_29363">
<rect width="149.035" height="103.802" fill="white" transform="translate(203.156 0.731445)"/>
</clipPath>
<clipPath id="clip5_2959_29363">
<rect width="56.8303" height="59.1497" fill="white" transform="translate(253.027 7.11084)"/>
</clipPath>
<clipPath id="clip6_2959_29363">
<rect width="66.6886" height="98.0033" fill="white" transform="translate(215.912 41.9038)"/>
</clipPath>
<clipPath id="clip7_2959_29363">
<rect width="106.122" height="153.094" fill="white" transform="translate(29.7646 45.3838)"/>
</clipPath>
<clipPath id="clip8_2959_29363">
<rect width="84.0857" height="121.199" fill="white" transform="translate(4.24805 77.2788)"/>
</clipPath>
<clipPath id="clip9_2959_29363">
<rect width="8.69852" height="11.598" fill="white" transform="matrix(-0.428612 -0.903489 -0.903489 0.428612 258.101 46.2485)"/>
</clipPath>
</defs>
</svg>
