<svg width="16" height="16" viewBox="0 0 16 16" fill="none" xmlns="http://www.w3.org/2000/svg">
<path d="M15.5265 2.73247C16.1512 2.10776 16.1512 1.09324 15.5265 0.46853C14.9018 -0.156177 13.8872 -0.156177 13.2625 0.46853L8 5.73606L2.73247 0.473528C2.10776 -0.151179 1.09324 -0.151179 0.46853 0.473528C-0.156177 1.09824 -0.156177 2.11276 0.46853 2.73747L5.73606 8L0.473528 13.2675C-0.151179 13.8922 -0.151179 14.9068 0.473528 15.5315C1.09824 16.1562 2.11276 16.1562 2.73747 15.5315L8 10.2639L13.2675 15.5265C13.8922 16.1512 14.9068 16.1512 15.5315 15.5265C16.1562 14.9018 16.1562 13.8872 15.5315 13.2625L10.2639 8L15.5265 2.73247Z" fill="white"/>
</svg>
