<svg viewBox="0 0 16 16" fill="currentColor" xmlns="http://www.w3.org/2000/svg">
<path d="M9.50759 8C9.50759 7.99582 9.506 7.99234 9.50284 7.98956C8.00949 6.50885 6.51509 5.02902 5.01963 3.55005C4.83147 3.36388 4.71224 3.22329 4.66195 3.12829C4.56136 2.93759 4.54448 2.74515 4.6113 2.55097C4.69712 2.30111 4.86506 2.13199 5.11512 2.0436C5.30434 1.97643 5.49426 1.98687 5.68488 2.07491C5.7918 2.12433 5.93354 2.23638 6.1101 2.41107C7.79548 4.07796 9.48068 5.74519 11.1657 7.41276C11.3409 7.58606 11.4284 7.78181 11.4284 8C11.4284 8.21819 11.3409 8.41394 11.1657 8.58724C9.48068 10.2548 7.79548 11.922 6.1101 13.5889C5.93354 13.7636 5.7918 13.8757 5.68488 13.9251C5.49426 14.0131 5.30434 14.0236 5.11512 13.9564C4.86506 13.868 4.69712 13.6989 4.6113 13.449C4.54448 13.2549 4.56136 13.0624 4.66195 12.8717C4.71224 12.7767 4.83147 12.6361 5.01963 12.4499C6.51509 10.971 8.00949 9.49114 9.50284 8.01044C9.506 8.00731 9.50759 8.00383 9.50759 8Z"/>
</svg>