<svg viewBox="0 0 17 17" fill="currentColor" xmlns="http://www.w3.org/2000/svg">
<path d="M1.65234 15.2318C1.65234 15.4432 1.73634 15.646 1.88585 15.7955C2.03536 15.945 2.23814 16.029 2.44958 16.029H15.2054C15.4168 16.029 15.6196 15.945 15.7691 15.7955C15.9186 15.646 16.0026 15.4432 16.0026 15.2318C16.0026 15.0204 15.9186 14.8176 15.7691 14.6681C15.6196 14.5186 15.4168 14.4346 15.2054 14.4346H2.44958C2.23814 14.4346 2.03537 14.5186 1.88586 14.6681C1.73635 14.8176 1.65235 15.0204 1.65234 15.2318Z"/>
<path d="M3.75463 13.1306H6.00932C6.21876 13.1313 6.42624 13.0903 6.61975 13.0102C6.81326 12.9301 6.98896 12.8124 7.13666 12.6639L14.796 5.00453C15.0943 4.7052 15.2617 4.29985 15.2617 3.8773C15.2616 3.45474 15.094 3.04945 14.7956 2.75023L12.5402 0.494771C12.2408 0.196601 11.8355 0.0292237 11.413 0.0292969C10.9904 0.0293701 10.5852 0.196888 10.2859 0.495162L2.62691 8.15415C2.47842 8.30186 2.36071 8.47755 2.28059 8.67106C2.20048 8.86458 2.15954 9.07206 2.16016 9.2815V11.5362C2.16059 11.9589 2.32871 12.3642 2.62764 12.6632C2.92657 12.9621 3.33188 13.1302 3.75463 13.1306ZM11.4132 1.6225L13.6683 3.87758L12.5406 5.00531L10.2855 2.75023L11.4132 1.6225Z"/>
</svg>
