<svg viewBox="0 0 20 16" fill="currentColor" xmlns="http://www.w3.org/2000/svg">
<path d="M1.21268 0.159307C0.887676 -0.0969435 0.415801 -0.0375685 0.159551 0.287432C-0.0966993 0.612432 -0.0373243 1.08431 0.287676 1.34056L18.7877 15.8406C19.1127 16.0968 19.5846 16.0374 19.8408 15.7124C20.0971 15.3874 20.0377 14.9156 19.7127 14.6593L16.4252 12.0843C17.6627 10.8156 18.5002 9.39368 18.9221 8.38431C19.0252 8.13743 19.0252 7.86243 18.9221 7.61556C18.4564 6.49993 17.4783 4.87493 16.0158 3.51868C14.5471 2.14993 12.5252 0.999932 10.0002 0.999932C7.86893 0.999932 6.09393 1.82181 4.70955 2.89993L1.21268 0.159307ZM6.97205 4.67181C7.76893 3.94368 8.83455 3.49993 10.0002 3.49993C12.4846 3.49993 14.5002 5.51556 14.5002 7.99993C14.5002 8.77806 14.3033 9.50931 13.9564 10.1468L12.7502 9.20306C13.0127 8.59993 13.0814 7.90931 12.9002 7.22493C12.5533 5.92806 11.4064 5.05618 10.1314 5.00306C9.95018 4.99681 9.84393 5.19368 9.90018 5.36868C9.9658 5.56868 10.0033 5.78118 10.0033 6.00306C10.0033 6.32181 9.9283 6.62181 9.79705 6.88743L6.97518 4.67493L6.97205 4.67181ZM11.6564 12.1843C11.1439 12.3874 10.5846 12.4999 10.0002 12.4999C7.5158 12.4999 5.50018 10.4843 5.50018 7.99993C5.50018 7.78431 5.5158 7.57493 5.54393 7.36868L2.59705 5.04681C1.88455 5.97493 1.37518 6.89993 1.0783 7.61556C0.975176 7.86243 0.975176 8.13743 1.0783 8.38431C1.54393 9.49993 2.52205 11.1249 3.98455 12.4812C5.4533 13.8499 7.47518 14.9999 10.0002 14.9999C11.4939 14.9999 12.8096 14.5968 13.9439 13.9843L11.6564 12.1843Z"/>
</svg>
