<svg viewBox="0 0 20 18" fill="currentColor" xmlns="http://www.w3.org/2000/svg">
<path d="M10.0001 1.22217C7.19455 1.22217 4.94803 2.49995 3.31261 4.02078C1.68761 5.52772 0.600803 7.33328 0.0869141 8.57286C-0.0276693 8.84717 -0.0276693 9.15272 0.0869141 9.42703C0.600803 10.6666 1.68761 12.4722 3.31261 13.9791C4.94803 15.4999 7.19455 16.7777 10.0001 16.7777C12.8057 16.7777 15.0522 15.4999 16.6876 13.9791C18.3126 12.4687 19.3994 10.6666 19.9168 9.42703C20.0314 9.15272 20.0314 8.84717 19.9168 8.57286C19.3994 7.33328 18.3126 5.52772 16.6876 4.02078C15.0522 2.49995 12.8057 1.22217 10.0001 1.22217ZM5.00011 8.99995C5.00011 7.67386 5.52689 6.40209 6.46457 5.46441C7.40226 4.52673 8.67403 3.99995 10.0001 3.99995C11.3262 3.99995 12.598 4.52673 13.5356 5.46441C14.4733 6.40209 15.0001 7.67386 15.0001 8.99995C15.0001 10.326 14.4733 11.5978 13.5356 12.5355C12.598 13.4732 11.3262 13.9999 10.0001 13.9999C8.67403 13.9999 7.40226 13.4732 6.46457 12.5355C5.52689 11.5978 5.00011 10.326 5.00011 8.99995ZM10.0001 6.77772C10.0001 8.00342 9.00358 8.99995 7.77789 8.99995C7.53136 8.99995 7.29525 8.95828 7.07303 8.88536C6.88205 8.82286 6.65983 8.94092 6.66678 9.14231C6.67719 9.38189 6.71191 9.62147 6.77789 9.86106C7.25358 11.6388 9.08344 12.6944 10.8612 12.2187C12.639 11.743 13.6946 9.91314 13.2189 8.13536C12.8334 6.69439 11.5591 5.72564 10.1425 5.66661C9.94108 5.65967 9.82303 5.87842 9.88553 6.07286C9.95844 6.29508 10.0001 6.5312 10.0001 6.77772Z"/>
</svg>
