<svg viewBox="0 0 17 17" fill="currentColor" xmlns="http://www.w3.org/2000/svg">
<path d="M15.8967 9.50361C16.2873 9.11299 16.2873 8.47861 15.8967 8.08799L11.8967 4.08799C11.5061 3.69736 10.8717 3.69736 10.4811 4.08799C10.0904 4.47861 10.0904 5.11299 10.4811 5.50361L12.7748 7.79736H6.19043C5.6373 7.79736 5.19043 8.24424 5.19043 8.79736C5.19043 9.35049 5.6373 9.79736 6.19043 9.79736H12.7748L10.4811 12.0911C10.0904 12.4817 10.0904 13.1161 10.4811 13.5067C10.8717 13.8974 11.5061 13.8974 11.8967 13.5067L15.8967 9.50674V9.50361ZM5.19043 3.79736C5.74355 3.79736 6.19043 3.35049 6.19043 2.79736C6.19043 2.24424 5.74355 1.79736 5.19043 1.79736H3.19043C1.53418 1.79736 0.19043 3.14111 0.19043 4.79736V12.7974C0.19043 14.4536 1.53418 15.7974 3.19043 15.7974H5.19043C5.74355 15.7974 6.19043 15.3505 6.19043 14.7974C6.19043 14.2442 5.74355 13.7974 5.19043 13.7974H3.19043C2.6373 13.7974 2.19043 13.3505 2.19043 12.7974V4.79736C2.19043 4.24424 2.6373 3.79736 3.19043 3.79736H5.19043Z" />
</svg>
