<svg viewBox="0 0 17 16" fill="none" xmlns="http://www.w3.org/2000/svg">
<path d="M6.66722 8C6.66722 8.00418 6.6688 8.00766 6.67197 8.01044C8.16531 9.49115 9.65972 10.971 11.1552 12.4499C11.3433 12.6361 11.4626 12.7767 11.5129 12.8717C11.6134 13.0624 11.6303 13.2549 11.5635 13.449C11.4777 13.6989 11.3097 13.868 11.0597 13.9564C10.8705 14.0236 10.6805 14.0131 10.4899 13.9251C10.383 13.8757 10.2413 13.7636 10.0647 13.5889C8.37933 11.922 6.69413 10.2548 5.0091 8.58724C4.83395 8.41394 4.74637 8.21819 4.74637 8C4.74637 7.78181 4.83395 7.58606 5.0091 7.41276C6.69413 5.74519 8.37933 4.07796 10.0647 2.41107C10.2413 2.23638 10.383 2.12433 10.4899 2.07491C10.6805 1.98687 10.8705 1.97643 11.0597 2.0436C11.3097 2.13199 11.4777 2.30111 11.5635 2.55097C11.6303 2.74515 11.6134 2.93759 11.5129 3.12829C11.4626 3.22329 11.3433 3.36388 11.1552 3.55005C9.65972 5.02902 8.16531 6.50886 6.67197 7.98956C6.6688 7.99269 6.66722 7.99617 6.66722 8Z" fill="#808080"/>
</svg>
