<svg viewBox="0 0 16 16" fill="none" xmlns="http://www.w3.org/2000/svg">
<g id="button-icon">
<path id="Vector" d="M8 9.50759C8.00418 9.50759 8.00766 9.506 8.01044 9.50284C9.49115 8.00949 10.971 6.51509 12.4499 5.01963C12.6361 4.83147 12.7767 4.71224 12.8717 4.66195C13.0624 4.56136 13.2549 4.54448 13.449 4.6113C13.6989 4.69712 13.868 4.86506 13.9564 5.11512C14.0236 5.30434 14.0131 5.49426 13.9251 5.68488C13.8757 5.7918 13.7636 5.93354 13.5889 6.1101C11.922 7.79548 10.2548 9.48068 8.58724 11.1657C8.41394 11.3409 8.21819 11.4284 8 11.4284C7.78181 11.4284 7.58606 11.3409 7.41276 11.1657C5.74519 9.48068 4.07796 7.79548 2.41107 6.1101C2.23638 5.93354 2.12433 5.7918 2.07491 5.68488C1.98687 5.49426 1.97643 5.30434 2.0436 5.11512C2.13199 4.86506 2.30111 4.69712 2.55097 4.6113C2.74515 4.54448 2.93759 4.56136 3.12829 4.66195C3.22329 4.71224 3.36388 4.83147 3.55005 5.01963C5.02902 6.51509 6.50886 8.00949 7.98956 9.50284C7.99269 9.506 7.99617 9.50759 8 9.50759Z" fill="#808080"/>
</g>
</svg>
