<svg viewBox="0 0 16 16" fill="none" xmlns="http://www.w3.org/2000/svg">
<path d="M13.6542 2.34046C12.535 1.2224 11.1096 0.461231 9.55792 0.153165C8.00628 -0.1549 6.39814 0.00397086 4.93677 0.609695C3.47541 1.21542 2.22643 2.2408 1.34771 3.55623C0.469 4.87166 0 6.41807 0 8C0 9.58193 0.469 11.1283 1.34771 12.4438C2.22643 13.7592 3.47541 14.7846 4.93677 15.3903C6.39814 15.996 8.00628 16.1549 9.55792 15.8468C11.1096 15.5388 12.535 14.7776 13.6542 13.6595C15.1529 12.1573 15.9946 10.122 15.9946 8C15.9946 5.87801 15.1529 3.84266 13.6542 2.34046ZM12.8462 12.8515C11.8866 13.8111 10.6641 14.4646 9.33315 14.7294C8.00221 14.9942 6.62264 14.8583 5.36891 14.339C4.11518 13.8197 3.04359 12.9403 2.28966 11.812C1.53574 10.6837 1.13333 9.35714 1.13333 8.00011C1.13333 6.64309 1.53574 5.31655 2.28966 4.18823C3.04359 3.05991 4.11518 2.1805 5.36891 1.66121C6.62264 1.14192 8.00221 1.00607 9.33315 1.27084C10.6641 1.53561 11.8866 2.1891 12.8462 3.14869C14.131 4.43635 14.8525 6.18109 14.8525 8.00011C14.8525 9.81913 14.131 11.5639 12.8462 12.8515ZM8.56604 4.55863V9.68526C8.56604 9.83681 8.50584 9.98215 8.39868 10.0893C8.29151 10.1965 8.14617 10.2567 7.99462 10.2567C7.84306 10.2567 7.69772 10.1965 7.59056 10.0893C7.48339 9.98215 7.42319 9.83681 7.42319 9.68526V4.55863C7.42319 4.40708 7.48339 4.26173 7.59056 4.15457C7.69772 4.04741 7.84306 3.9872 7.99462 3.9872C8.14617 3.9872 8.29151 4.04741 8.39868 4.15457C8.50584 4.26173 8.56604 4.40708 8.56604 4.55863ZM8.56604 11.4666C8.56604 11.5796 8.53253 11.6901 8.46974 11.7841C8.40695 11.8781 8.31771 11.9513 8.21329 11.9946C8.10888 12.0378 7.99398 12.0491 7.88314 12.0271C7.77229 12.005 7.67047 11.9506 7.59056 11.8707C7.51064 11.7908 7.45622 11.689 7.43417 11.5781C7.41212 11.4673 7.42344 11.3524 7.46669 11.2479C7.50994 11.1435 7.58318 11.0543 7.67715 10.9915C7.77112 10.9287 7.8816 10.8952 7.99462 10.8952C8.14617 10.8952 8.29151 10.9554 8.39868 11.0626C8.50584 11.1697 8.56604 11.3151 8.56604 11.4666Z" fill="#952018"/>
</svg>
