<svg viewBox="0 0 166 202" fill="none" xmlns="http://www.w3.org/2000/svg">
<g clip-path="url(#clip0_3071_34097)">
<g clip-path="url(#clip1_3071_34097)">
<path d="M165.295 46.0947C164.69 60.9387 157.556 84.422 146.659 101.592C138.709 114.125 128.757 123.295 117.879 123.295C108.189 123.295 99.1076 116.014 91.496 105.563C78.8511 88.2149 70.2468 62.119 69.5967 46.0947H165.295Z" fill="#D9D9D9"/>
<path d="M69.5947 200.513C70.6397 174.836 92.0944 123.315 117.879 123.315C143.663 123.315 164.252 174.836 165.296 200.513H69.5947Z" fill="#D9D9D9"/>
<path d="M146.659 101.592C138.709 114.125 128.757 123.294 117.879 123.294C108.189 123.294 99.1078 116.014 91.4961 105.563C102.24 104.564 126.11 102.935 146.659 101.592Z" fill="#808080"/>
<path d="M163.971 198.876L164.281 198.87L160.452 194.807C159.685 193.964 158.903 193.135 158.107 192.319L118.533 150.332H116.966L77.3195 192.329C74.549 194.863 71.9672 197.598 69.5947 200.512H165.296C164.859 199.963 164.417 199.417 163.971 198.876Z" fill="#808080"/>
<path d="M116.85 123.388H118.563V173.787H116.85V123.388Z" fill="#808080"/>
</g>
<g clip-path="url(#clip2_3071_34097)">
<path d="M58.3218 154.182L60.6711 174.848L61.4723 181.888L61.9106 185.733L62.0397 186.871L62.4571 190.549L62.6641 192.363L62.9798 195.123L62.9966 195.281L58.9276 195.394C57.9648 195.422 56.9439 195.45 56.0032 195.48C55.4701 195.494 54.9666 195.511 54.5085 195.525C53.7992 195.544 53.0901 195.569 52.3812 195.601L52.2812 195.259L51.9969 194.291L49.7575 186.678L47.2471 178.139L36.7619 151.714L32.3789 127.751L48.0407 127.277L57.2404 150.347C57.8136 151.633 58.1787 152.929 58.3218 154.182Z" fill="#D9D9D9"/>
<path d="M59.002 176.927H46.7622L36.7625 151.714L32.3789 127.749L48.0412 127.276L57.2387 150.344C57.8142 151.632 58.1805 152.927 58.32 154.18L62.8635 171.936C63.5106 174.465 61.606 176.927 59.002 176.927Z" fill="#4385AC"/>
<path d="M10.4079 47.4546L3.89062 38.4578L4.42259 39.1171C4.56276 39.2895 4.7385 39.4294 4.93773 39.5272C5.13696 39.625 5.35494 39.6783 5.5767 39.6836C5.79845 39.6889 6.01871 39.6459 6.22233 39.5577C6.42595 39.4695 6.60809 39.3381 6.75624 39.1725L6.78066 39.1579C6.95448 38.9611 7.08434 38.7293 7.16155 38.4781C7.23875 38.2268 7.26152 37.9619 7.22832 37.7011L6.89403 35.1781C6.80296 34.5406 6.88573 33.8904 7.13356 33.2963C7.31611 32.8964 7.56436 32.5385 7.87132 32.3146C8.03527 32.1951 8.21376 32.1135 8.41026 32.0832C8.49579 32.0721 8.58269 32.0794 8.66518 32.1046C8.74766 32.1299 8.82383 32.1724 8.88859 32.2296C8.95335 32.2867 9.00523 32.357 9.04074 32.4358C9.07626 32.5146 9.0946 32.6001 9.09454 32.6865L9.82941 40.4807L10.4085 42.2558C10.7689 43.343 10.8648 44.5002 10.6898 45.6328L10.4207 47.3362C10.4149 47.3753 10.4108 47.4138 10.4079 47.4546Z" fill="#D9D9D9"/>
<path d="M10.2389 50.4843C11.7999 48.9598 10.4354 48.8858 10.4878 47.324L10.4273 46.9888L1.9072 34.4314L1.80545 33.7837L0.868854 34.6814C0.739408 34.8055 0.649427 34.9652 0.610222 35.1403C0.571017 35.3155 0.584338 35.4984 0.648511 35.6661L0.895016 36.3096L0.478168 36.8005C0.375924 36.921 0.306765 37.0662 0.277506 37.2217C0.248248 37.3771 0.259899 37.5376 0.311312 37.6872L0.693859 38.8018L-0.0578636 40.5122C-0.32118 41.1069 -0.353931 41.7787 -0.149721 42.3963L1.33628 48.0288L8.76746 59.372L12.4214 55.1963L10.2389 50.4843Z" fill="#D9D9D9"/>
<path d="M5.23242 55.0007L18.0262 74.5158C19.3901 76.5958 21.3819 78.1837 23.7104 79.0471L29.1271 81.0554L38.7658 72.4224L26.0923 63.2595L11.352 49.4673L5.23242 55.0007Z" fill="#59A5D5"/>
<path d="M45.4793 13.1211L45.4043 26.0184C45.4427 27.5435 46.9519 28.5887 48.3879 28.0845L61.7038 23.4068L45.4793 13.1211Z" fill="#D9D9D9"/>
<path d="M46.5279 20.9574L44.2501 20.9026C43.3013 20.8799 42.8338 19.7349 43.4943 19.0511L46.3849 16.0612L46.5279 20.9574ZM53.0097 5.08347L53.3027 5.0759C53.8973 5.06102 54.4733 5.28351 54.9043 5.69444C55.3353 6.10537 55.5859 6.6711 55.6009 7.26723L55.7963 15.0742L45.4146 15.3354L45.3599 13.1487C45.2512 8.80333 48.6761 5.19249 53.0097 5.08347Z" fill="#D9D9D9"/>
<path d="M104.009 34.329H72.6842V53.759L55.8475 52.6747L52.7662 52.4765L40.7374 51.7012L37.6503 51.503L35.5225 51.3631L39.7723 41.9949C40.4584 40.4851 41.6676 39.2842 43.1792 38.6196L46.5512 37.1272H46.557L51.9697 34.7371L51.9755 34.7313L68.9285 27.2228L73.1725 25.3457L74.4283 24.7918C76.0329 24.0806 77.8468 24.0282 79.4921 24.6461L104.093 33.8656C104.341 33.9589 104.275 34.329 104.009 34.329Z" fill="#59A5D5"/>
<path d="M64.9718 15.3539H52.8436V39.4248C52.8436 40.0089 53.5483 40.301 53.9599 39.8871L64.9724 28.8039L64.9718 15.3539ZM45.3584 13.8493L51.8664 13.686L52.0739 21.9815L45.566 22.1448L45.3584 13.8493Z" fill="#D9D9D9"/>
<path d="M55.7763 3.4668H58.8576C62.225 3.4668 64.9545 6.20378 64.9545 9.58027V24.8637H45.3574V13.914C45.3574 8.14445 50.0218 3.4668 55.7763 3.4668Z" fill="#D9D9D9"/>
<path d="M47.9571 54.8159L38.3474 76.9799L26.6641 71.8872L36.2737 49.7231L47.9571 54.8159Z" fill="#59A5D5"/>
<path d="M47.6364 25.4278L46.1371 25.7746C46.0437 25.7962 45.9468 25.7964 45.8534 25.7752C45.76 25.754 45.6726 25.7119 45.5977 25.6521C45.5227 25.5923 45.4622 25.5164 45.4206 25.4299C45.379 25.3434 45.3574 25.2486 45.3574 25.1526V23.335H46.7946C47.1642 23.335 47.5186 23.4822 47.78 23.7442C48.0413 24.0063 48.1882 24.3617 48.1882 24.7323C48.188 24.8937 48.1334 25.0502 48.0332 25.1765C47.933 25.3028 47.7932 25.3913 47.6364 25.4278Z" fill="#D9D9D9"/>
<path d="M26.4717 76.6451L26.4502 87.1139L34.8023 144.019C34.8023 144.019 50.9361 138.281 50.91 137.974L48.6891 76.5361L26.4717 76.6451Z" fill="#4385AC"/>
<path d="M37.6044 199.326L35.0469 197.799C34.3417 197.377 33.851 196.657 33.7423 195.884C33.583 194.748 34.2812 193.784 35.3806 193.623L40.2305 192.915C43.2955 192.466 45.8239 190.678 47.1599 188.014L48.7593 184.824L50.8872 186.024C51.3999 186.313 51.6645 186.912 51.5017 187.416L51.036 188.857L53.9533 190.005C55.9295 190.783 58.0253 190.425 59.352 189.082L61.4008 187.01C61.7595 186.647 62.4444 186.919 62.5496 187.467L64.3397 196.792L64.0874 198.987L37.6044 199.326Z" fill="#59A5D5"/>
<path d="M65.1422 197.406L64.8381 198.328C64.2905 199.989 62.7731 201.048 60.9429 201.048H41.4824C41.0962 201.045 40.7163 200.949 40.3749 200.767L35.7256 198.337H51.749C52.0327 198.337 52.2896 198.225 52.4652 198.027C53.3466 197.03 54.6373 196.472 56.0628 196.472H64.4201C64.8997 196.471 65.2858 196.971 65.1422 197.406Z" fill="#59A5D5"/>
<path d="M52.8252 172.985L56.4309 179.46L59.9535 182.656L49.8898 190.644L43.0127 180.133L52.8252 172.985Z" fill="#D9D9D9"/>
<path d="M63.9866 186.843L57.2885 193.146L48.8114 201.124C48.3126 201.137 45.4365 200.919 45.4365 200.919L45.4976 200.022L45.972 192.967L46.5057 185.055L46.8603 184.985C47.1229 184.933 47.3952 184.981 47.6253 185.118C47.8553 185.255 48.0271 185.472 48.108 185.727L48.5847 187.243L51.3916 186.223C52.3235 185.885 53.1419 185.292 53.7534 184.51C54.3649 183.728 54.7448 182.79 54.8496 181.802L55.1804 178.688C55.2368 178.144 55.899 177.906 56.2885 178.291L60.0466 182.005L62.6924 184.62L62.9209 184.845L63.9866 186.843Z" fill="#59A5D5"/>
<path d="M57.048 190.494L55.5259 196.637L44.9349 199.321L37.5991 199.415H37.5816L37.4683 199.341L36.0619 198.424L35.2387 197.887C34.9659 197.709 34.7343 197.474 34.5595 197.199C34.3847 196.923 34.2708 196.614 34.2254 196.291C34.18 195.967 34.2042 195.638 34.2963 195.325C34.3885 195.012 34.5465 194.722 34.7596 194.476C35.119 194.061 35.6151 193.79 36.1573 193.712L41.1066 193.002C42.6522 192.781 44.1323 192.229 45.4465 191.383C46.7607 190.538 47.8782 189.419 48.7232 188.102L52.7277 186.113C52.9561 186.253 53.1252 186.472 53.2028 186.728C53.2803 186.985 53.2609 187.261 53.1481 187.504L52.4818 188.945L55.2387 190.094C55.8129 190.335 56.4258 190.47 57.048 190.494Z" fill="#59A5D5"/>
<path d="M51.0513 198.424V201.136H40.9522C40.5779 201.136 40.2098 201.04 39.883 200.857L37.3314 199.415L37.2005 199.341L35.5762 198.424H51.0513Z" fill="#59A5D5"/>
<path d="M62.8413 190.688L56.4444 196.554L51.5515 201.043C50.6498 201.069 49.694 201.095 48.8121 201.123C48.3132 201.137 47.8412 201.152 47.4121 201.165L54.5131 194.649C54.7224 194.457 54.8485 194.191 54.866 193.907C54.9479 192.481 55.5823 191.143 56.6339 190.178L58.4327 188.528L62.6942 184.62L62.8012 184.521C62.8826 184.447 62.9814 184.395 63.0883 184.369C63.1952 184.343 63.307 184.345 63.4131 184.374C63.5192 184.403 63.6164 184.458 63.6956 184.534C63.7748 184.611 63.8335 184.706 63.8663 184.811L64.1669 185.785C64.4318 186.644 64.4479 187.561 64.2132 188.429C63.9785 189.297 63.5028 190.08 62.8413 190.688Z" fill="#59A5D5"/>
<path d="M34.9213 84.3817L17.8741 141.061C17.383 142.694 17.2552 144.415 17.4996 146.103C17.744 147.791 18.3547 149.405 19.2886 150.83L38.7509 180.531C40.0607 182.53 42.7973 182.976 44.671 181.495L53.7126 174.349L52.4063 172.02L41.2345 147.379C40.995 146.831 40.7113 146.303 40.3851 145.802L36.2277 139.4L55.5992 108.689C58.6863 103.795 59.8469 97.9238 58.8549 92.219L56.1504 76.6663L37.2027 76.6196L34.9213 84.3817Z" fill="#4385AC"/>
<path d="M71.6201 46.308H99.7402C103.706 46.308 106.92 43.0849 106.92 39.1085V38.0248C106.92 36.8337 106.448 35.6914 105.608 34.8491C104.768 34.0069 103.629 33.5337 102.441 33.5337H71.6201V46.308Z" fill="#59A5D5"/>
<path d="M26.4658 76.6479H44.0078C47.4035 76.6478 50.7253 77.6418 53.5656 79.5078L56.9097 81.7044L67.1472 69.7258C71.0355 65.1763 74.201 60.053 76.5324 54.5363L84.8368 34.8848L39.241 49.7677L26.4658 76.6479Z" fill="#59A5D5"/>
<path d="M80.0127 60.9109C80.5918 60.8952 81.1331 60.4154 81.2883 59.7176L82.7935 48.9679L79.8186 46.9899L79.6674 60.5093C79.6631 60.5585 79.6687 60.6081 79.6839 60.6551C79.699 60.7022 79.7234 60.7457 79.7556 60.7831C79.7878 60.8206 79.8271 60.8512 79.8713 60.8731C79.9154 60.8951 79.9635 60.9079 80.0127 60.9109ZM81.9784 57.4948C82.5505 57.584 83.1702 57.2109 83.4481 56.5533L86.8713 46.2548L84.3027 43.769L81.711 57.0372C81.6978 57.0848 81.6943 57.1347 81.7007 57.1837C81.7071 57.2327 81.7232 57.28 81.7482 57.3227C81.7731 57.3654 81.8063 57.4026 81.8459 57.4321C81.8854 57.4617 81.9305 57.483 81.9784 57.4948Z" fill="#D9D9D9"/>
<path d="M84.2222 55.889C84.7972 55.956 85.4019 55.5596 85.6548 54.8916L88.6797 44.4689L86.0181 42.084L83.9374 55.4425C83.9262 55.4906 83.9247 55.5404 83.9331 55.5891C83.9414 55.6378 83.9594 55.6843 83.9859 55.726C84.0125 55.7676 84.0471 55.8034 84.0876 55.8314C84.1282 55.8594 84.174 55.879 84.2222 55.889Z" fill="#D9D9D9"/>
<path d="M86.4927 53.3226C87.0677 53.3896 87.6724 52.9932 87.9253 52.3252L90.7461 42.6067C90.8074 42.3958 90.8079 42.1719 90.7475 41.9608C90.6871 41.7497 90.5683 41.5601 90.4048 41.4139L88.2886 39.5176L86.2079 52.8761C86.1967 52.9242 86.1952 52.974 86.2036 53.0227C86.2119 53.0714 86.2299 53.1179 86.2564 53.1595C86.283 53.2012 86.3176 53.237 86.3581 53.265C86.3987 53.293 86.4445 53.3126 86.4927 53.3226Z" fill="#D9D9D9"/>
<path d="M87.3232 46.5393H83.9565C81.9978 46.5393 80.3955 44.9327 80.3955 42.9687V39.9822C80.3955 38.0183 81.9978 36.4116 83.9565 36.4116H84.7954C88.1441 36.4116 90.8836 39.1591 90.8836 42.5164V42.9681C90.8842 44.9321 89.2819 46.5393 87.3232 46.5393Z" fill="#D9D9D9"/>
<path d="M81.3747 37.6323V47.2126L81.3369 46.4828C81.3327 46.4126 81.323 46.3428 81.3079 46.2741C81.1532 45.56 80.68 45.2463 79.9678 45.3991L79.7132 45.2568C79.2678 45.3553 79.1143 45.7827 78.8952 46.1849L77.8539 48.1133C77.5956 48.604 77.2095 49.0152 76.7365 49.3031C76.4074 49.4897 75.8237 49.4734 75.497 49.4734C75.3226 49.4734 75.1569 49.4395 75.0046 49.3608C74.9393 49.3251 74.8825 49.2759 74.8377 49.2164C74.793 49.1568 74.7614 49.0884 74.7451 49.0157C74.7288 48.943 74.7282 48.8677 74.7433 48.7947C74.7583 48.7217 74.7887 48.6528 74.8325 48.5925L78.2562 42.7863L78.7486 41.2548C79.0465 40.314 79.5639 39.4581 80.2579 38.758L81.3055 37.7075C81.33 37.6836 81.3521 37.6591 81.3747 37.6323Z" fill="#D9D9D9"/>
<path d="M89.0935 44.4223C89.0935 47.5638 86.7441 50.1102 83.8465 50.1102C83.6855 50.1102 83.5262 50.1026 83.3692 50.0869C83.2716 50.0776 83.0692 50.1469 83.0785 50.0496C83.107 49.7464 82.7152 49.6998 82.6588 49.9639C82.6402 50.0502 82.489 49.919 82.4053 49.8928C81.4763 49.6054 80.6519 49.0475 80.0106 48.303C79.9414 48.2226 79.8089 48.162 79.8089 48.0547C79.8129 46.2796 79.1868 45.7345 78.8502 46.2709C78.7717 46.3962 78.8008 45.9939 78.7659 45.8476C78.6577 45.3923 78.5996 44.9149 78.5996 44.4223C78.5996 41.2807 80.949 38.7344 83.8465 38.7344C86.7441 38.7344 89.0935 41.2813 89.0935 44.4223Z" fill="#D9D9D9"/>
<path d="M1.98048 37.0747L5.4362 31.775C5.75596 31.188 5.66875 30.5147 5.27051 30.1457L5.26353 30.1404C5.22694 30.1135 5.1854 30.094 5.1413 30.0832C5.09721 30.0724 5.05141 30.0703 5.00654 30.0773C4.96166 30.0842 4.91859 30.0999 4.87979 30.1236C4.84099 30.1472 4.80721 30.1783 4.7804 30.215L1.58398 33.964L1.98048 37.0747Z" fill="#D9D9D9"/>
<path d="M2.05841 37.6844L6.23271 34.5644C6.73444 34.1231 6.88327 33.4614 6.63618 32.9776L6.63153 32.97C6.58074 32.8935 6.50177 32.8404 6.41196 32.8223C6.32215 32.8041 6.22883 32.8224 6.15248 32.8732L1.76074 35.3496L2.05841 37.6844Z" fill="#D9D9D9"/>
<path d="M2.34405 39.9216L5.97883 37.205C6.48056 36.7637 6.62939 36.102 6.38231 35.6182L6.37766 35.6106C6.32686 35.5342 6.2479 35.481 6.15808 35.4629C6.06827 35.4447 5.97495 35.4631 5.8986 35.5138L2.05859 37.6789L2.34405 39.9216Z" fill="#D9D9D9"/>
<path d="M2.44105 42.2698L0.302734 41.5621L1.71432 37.2744L3.85263 37.9821L2.44105 42.2698Z" fill="#D9D9D9"/>
<path d="M4.84414 47.3124L2.05236 48.1379L-0.0126953 41.1121L2.77908 40.2866L4.84414 47.3124Z" fill="#D9D9D9"/>
</g>
<g clip-path="url(#clip3_3071_34097)">
<path d="M1.28208 35.6264L2.03424 34.5879L2.0252 34.552L5.25019 29.0465C5.27648 28.9935 5.31197 28.9463 5.35464 28.9077C5.39731 28.8691 5.44632 28.8398 5.49886 28.8215C5.5514 28.8032 5.60645 28.7963 5.66084 28.8011C5.71524 28.8059 5.76792 28.8223 5.81587 28.8495L5.82528 28.8539C6.35837 29.2463 6.56894 30.0959 6.27944 30.9203L4.80453 34.3102L7.30874 32.1871C7.35056 32.1461 7.39927 32.1144 7.452 32.0939C7.50472 32.0733 7.56039 32.0644 7.61571 32.0675C7.67104 32.0707 7.72489 32.0859 7.7741 32.1123C7.82331 32.1387 7.86688 32.1757 7.90222 32.2211C8.27449 32.7931 8.19999 33.6782 7.67131 34.3515L3.47556 38.9277L3.5381 38.9386L7.42058 35.6471C7.50373 35.5655 7.61227 35.5222 7.72242 35.5267C7.83257 35.5311 7.93534 35.583 8.00821 35.6708L8.01519 35.6795C8.38664 36.2513 8.31296 37.1365 7.78331 37.8107L5.11577 40.72L4.70694 43.0798L5.46785 44.9171C5.62282 45.2911 5.70704 45.6971 5.71563 46.1115C5.72423 46.5258 5.65702 46.9403 5.51791 47.3308C5.3788 47.7214 5.17055 48.0802 4.90526 48.3865C4.63996 48.6929 4.32289 48.9406 3.97244 49.1153L2.78462 49.708L1.28387 45.7943C0.939949 45.0392 0.879179 44.1666 1.09819 43.3428L1.72831 40.9781L1.08996 39.6126C0.917419 39.2433 0.940505 38.7969 1.15075 38.4397L1.57125 37.7252L1.18107 36.9434C0.964369 36.5256 1.01207 36.0056 1.28208 35.6264Z" fill="#D9D9D9"/>
</g>
</g>
<defs>
<clipPath id="clip0_3071_34097">
<rect width="165" height="201" fill="white" transform="translate(0.69043 0.264648)"/>
</clipPath>
<clipPath id="clip1_3071_34097">
<rect width="95.7017" height="154.418" fill="white" transform="translate(69.5947 46.0947)"/>
</clipPath>
<clipPath id="clip2_3071_34097">
<rect width="104.599" height="197.698" fill="white" transform="translate(2.32129 3.4668)"/>
</clipPath>
<clipPath id="clip3_3071_34097">
<rect width="7.1671" height="21.0919" fill="white" transform="matrix(-0.985122 -0.171857 -0.170704 0.985323 9.49609 29.4688)"/>
</clipPath>
</defs>
</svg>
