<svg viewBox="0 0 230 219" fill="none" xmlns="http://www.w3.org/2000/svg">
<path d="M96.7045 30.8008C96.7224 30.8889 96.7688 30.9687 96.8367 31.0283C96.9046 31.0879 96.9903 31.124 97.0808 31.1311C98.4385 31.2343 99.845 31.1423 101.3 30.8551C101.571 30.8022 102.266 30.9402 103.387 31.2691C104.045 31.4615 104.665 31.7486 105.248 32.1306C107.205 33.4144 109.2 35.0035 109.923 37.3035C110.074 37.7774 110.024 38.4159 109.773 39.2188C109.561 39.8906 109.41 40.8092 109.321 41.9746C109.31 42.1091 109.272 42.2395 109.209 42.3576C109.145 42.4757 109.058 42.5789 108.953 42.6604C107.711 43.6222 106.916 44.0111 105.194 44.0028C103.341 43.9986 102.342 43.9484 100.936 44.1784C99.5007 44.4154 97.9228 44.584 96.2026 44.6844C94.4574 44.7903 92.7359 44.2369 91.0381 43.0242C89.8755 42.1962 88.9792 41.1745 88.3492 39.9589C88.0286 39.3484 87.8683 38.4619 87.8683 37.2993C87.8683 35.7729 87.9895 33.5273 87.701 31.8546C87.5114 30.7478 87.379 29.8501 87.3037 29.1615C86.9399 25.7742 87.6048 22.1193 89.7752 19.4179C90.4777 18.5452 91.4758 17.9347 92.7694 17.5862C94.4532 17.1318 95.7259 16.9576 96.5874 17.0635C98.4469 17.2949 100.308 17.5193 102.17 17.7368C104.105 17.9626 105.782 18.6177 107.201 19.7022C108.138 20.4215 108.627 21.4 109.342 22.6713C110.433 24.6075 111.68 28.1955 110.417 30.1902C109.472 31.6789 107.008 31.2942 105.733 30.4704C104.189 29.4723 103.019 28.8074 102.224 28.4757C100.348 27.6951 98.61 27.7885 97.0097 28.7559C96.8871 28.8311 96.8048 28.9371 96.763 29.0737C96.5985 29.6229 96.579 30.1986 96.7045 30.8008Z" fill="#59A5D5"/>
<path d="M134.596 28.6931L132.079 27.5891C131.964 27.5389 131.846 27.5277 131.723 27.5556C129.894 27.9766 128.656 28.3822 128.01 28.7725C126.992 29.3886 126.196 29.8891 125.622 30.2738C124.68 30.9066 123.881 31.2105 123.226 31.1854C122.32 31.1492 121.621 30.6934 121.131 29.818C120.804 29.2297 120.651 28.4868 120.671 27.5891C120.735 24.8235 121.652 22.4301 123.422 20.4089C124.281 19.4248 125.416 18.6567 126.826 18.1047C128.336 17.5151 129.841 17.5234 131.56 17.2098C132.026 17.1234 132.668 17.0732 133.488 17.0592C136.704 17.0007 139.819 16.7791 141.772 19.4889C143.682 22.1346 144.545 25.0744 144.361 28.3083C144.298 29.4458 143.809 31.5074 143.533 32.5696C143.073 34.3678 143.24 36.1492 143.248 38.8758C143.252 39.5198 142.939 40.3645 142.504 40.8872C140.979 42.7412 139.105 43.9497 136.884 44.5129C136.153 44.6969 135.17 44.6913 133.935 44.4962C131.895 44.1783 130.799 43.9692 129.176 44.0069C128.131 44.032 126.744 43.9051 125.016 43.6263C124.664 43.5706 124.307 43.4674 123.945 43.3169C122.992 42.928 122.41 42.6352 122.21 41.5898C121.942 40.1958 121.655 38.8549 121.348 37.5669C121.289 37.3275 121.32 37.0755 121.436 36.8601C122.537 34.8083 124.089 33.1801 126.09 31.9758C128.014 30.816 130.257 30.5428 132.819 31.1561C132.989 31.1952 133.394 31.1436 134.036 31.0014C134.172 30.9708 134.277 30.8955 134.349 30.7756C134.703 30.179 134.86 29.5894 134.818 29.0067C134.813 28.9388 134.789 28.8737 134.75 28.8184C134.711 28.7631 134.658 28.7197 134.596 28.6931Z" fill="#59A5D5"/>
<path d="M150.177 30.7756C150.424 29.4458 149.768 28.7307 149.103 27.794C149.04 27.7053 149.004 27.6004 148.999 27.4915C148.994 27.3827 149.02 27.2744 149.073 27.1793C149.561 26.3011 150.311 25.6836 151.323 25.3267C151.711 25.1901 152.254 25.2863 152.954 25.6153C153.501 25.8745 154.248 26.5548 155.196 27.656C156.793 29.5169 158.441 31.7667 159.235 34.0709C159.442 34.6703 159.72 35.8064 160.072 37.4791C160.231 38.2262 160.194 39.0417 159.963 39.9255C159.849 40.3632 159.666 41.1911 159.415 42.4095C159.265 43.1399 158.902 44.0696 158.328 45.1987C157.681 46.4728 156.827 47.9322 155.764 49.5771C154.518 51.5091 153.678 52.9713 153.243 53.9638C151.648 57.5881 151.327 61.3684 152.281 65.3049C152.942 68.0273 153.556 71.3435 156.668 72.3136C158.761 72.966 160.886 72.9911 163.041 72.3889C163.609 72.2328 164.623 71.869 166.081 71.2975C166.981 70.9462 167.883 70.6632 168.787 70.4485C169.707 70.2283 170.627 70.0053 171.547 69.7794C171.878 69.6986 172.532 69.6428 173.508 69.6122C174.249 69.5871 174.902 69.6526 175.465 69.8087C178.743 70.712 180.89 72.7555 181.905 75.9393C182.212 76.8983 182.359 78.0121 182.348 79.2805C182.337 80.7163 182.276 81.8565 182.164 82.7013C182.157 82.7531 182.141 82.8031 182.114 82.8483C182.088 82.8935 182.053 82.933 182.012 82.9646C181.97 82.9961 181.922 83.019 181.872 83.032C181.821 83.0449 181.768 83.0477 181.717 83.04C179.506 82.7166 176.962 82.1799 174.085 81.43C172.298 80.9644 169.891 80.6508 166.863 80.4891C166.079 80.4501 165.383 80.3859 164.772 80.2967C163.58 80.1253 162.94 80.0249 161.97 80.0333C160.166 80.0472 158.554 80.0388 157.132 80.0082C156.909 80.0026 156.194 79.8186 154.987 79.4562C154.237 79.2304 153.608 78.8735 153.101 78.3856C151.684 77.0224 150.82 75.8013 150.508 74.7224C149.426 70.9587 148.873 69.0323 148.848 68.9431C147.133 63.4607 141.977 59.7891 136.235 60.0316C134.621 60.1027 132.585 60.4498 130.891 61.1105C127.721 62.34 123.368 62.3484 121.791 58.7687C121.543 58.2112 121.402 57.2744 121.369 55.9585C121.33 54.5674 121.358 53.6139 121.453 53.0982C121.567 52.4514 121.964 51.6039 122.644 50.5556C122.723 50.4384 122.837 50.348 122.971 50.2964C123.453 50.1179 124.25 49.8824 125.363 49.5896C125.797 49.4753 126.337 49.5381 126.981 49.7778C128.942 50.5096 130.552 50.4385 133.329 50.4845C135.651 50.5264 137.873 50.3856 139.995 50.0622C141.115 49.8921 142.689 49.2439 144.716 48.1176C145.887 47.4681 146.778 46.6638 147.388 45.7047C148.199 44.4307 148.683 43.296 148.839 42.3007C149.154 40.2684 149.245 38.8479 149.111 38.0395C148.952 37.1027 148.817 36.1618 148.705 35.2167C148.689 35.0857 148.781 34.5741 148.981 33.682C149.195 32.7244 150.014 31.6287 150.177 30.7756Z" fill="#59A5D5"/>
<path d="M82.1769 40.5861C82.6327 42.9614 83.214 45.2572 84.7738 46.7669C85.9949 47.942 87.8349 49.1212 89.403 49.7151C91.1845 50.3925 93.4301 50.3298 95.2074 50.6309C96.922 50.9208 98.3549 51.0198 99.5063 50.9278C100.886 50.8163 102.322 50.5514 103.814 50.1332C104.865 49.8405 105.91 49.7611 106.95 49.8949C108.076 50.0426 108.904 50.7173 109.434 51.9189C110.658 54.6872 110.504 57.4263 108.974 60.1361C108.91 60.256 108.577 60.5571 107.975 61.0394C107.046 61.7838 105.712 61.9385 104.621 62.1183C104.021 62.2187 103.289 62.1406 102.425 61.8841C100.962 61.4534 98.8038 60.684 97.0307 60.454C94.7781 60.164 92.9269 60.2254 91.4772 60.638C87.5714 61.7475 84.7055 64.2761 82.8794 68.2238C82.5476 68.9403 82.142 70.3732 81.6625 72.5227C81.123 74.9523 79.6009 78.348 77.121 79.3391C76.1481 79.7266 75.3563 80.0249 74.7458 80.234C74.1826 80.4263 73.3476 80.5239 72.2409 80.5267C70.0119 80.5309 66.4239 80.4096 63.8814 80.6438C59.319 81.0745 54.9532 82.0531 50.6083 83.2783C50.4267 83.33 50.233 83.3204 50.0569 83.2509C49.8809 83.1814 49.7323 83.0559 49.634 82.8936C48.7307 81.4049 48.8185 79.8911 49.107 78.1514C49.5043 75.7678 50.5372 73.0914 52.4567 71.6989C53.9789 70.5949 55.5652 69.9523 57.2156 69.7711C58.9845 69.5787 60.8119 70.344 62.6227 70.5907C63.2053 70.6715 63.8981 70.8932 64.701 71.2556C66.0336 71.8606 67.5503 72.3735 69.2509 72.7945C70.734 73.1597 71.9216 73.2531 72.8138 73.0747C74.0014 72.8349 75.1486 72.3903 76.2554 71.7407C77.2549 71.1511 78.2961 68.7632 78.5512 67.9603C78.7519 67.3275 78.9652 66.4577 79.191 65.3509C80.1055 60.9181 79.5841 56.7489 77.627 52.8431C77.3789 52.3496 76.6123 51.1871 75.327 49.3554C73.8327 47.2227 72.7246 44.9743 72.0025 42.6101C71.6903 41.5786 71.5327 40.4844 71.53 39.3274C71.5272 37.7105 71.5662 36.6023 71.647 36.0029C71.831 34.6438 72.5043 33.4812 73.303 31.98C74.5882 29.5573 76.254 27.4985 78.3003 25.8034C79.6552 24.6827 81.0352 26 82.1518 27.1709C82.1972 27.2201 82.2282 27.2805 82.2415 27.3455C82.2548 27.4104 82.2498 27.4773 82.227 27.5389C81.6458 29.1154 81.077 29.7761 81.629 31.5827C81.8047 32.1598 82.0026 32.7452 82.2229 33.3391C82.6787 34.5685 82.5825 36.7974 82.2814 38.0185C82.0584 38.9301 82.0235 39.786 82.1769 40.5861Z" fill="#59A5D5"/>
<path d="M114.519 33.1718C114.645 33.1523 114.716 33.2011 114.732 33.3181C114.95 34.832 115.004 35.5972 114.895 35.614C114.787 35.6307 114.608 34.8835 114.36 33.3725C114.341 33.2582 114.394 33.1913 114.519 33.1718Z" fill="#4385AC"/>
<path d="M51.1897 43.5553C51.0865 45.2866 51.1632 46.6582 51.4197 47.6702C51.8169 49.2384 52.1348 49.9284 51.8504 51.3084C51.7779 51.6708 51.5828 52.5183 51.2649 53.8509C51.0865 54.5953 50.8022 55.3299 50.4118 56.0548C49.2995 58.1206 48.8228 59.166 47.0706 60.5377C46.5994 60.9084 45.678 61.4437 44.3064 62.1435C42.7089 62.9603 40.7797 63.4371 38.5188 63.5737C38.1034 63.5987 37.7535 63.405 37.4691 62.9924C37.2572 62.6857 37.1081 62.3066 37.0217 61.8549C36.163 57.3664 36.577 53.3212 38.2637 49.7193C40.2877 45.3841 43.5091 42.2436 47.9278 40.2977C48.399 40.0914 49.7776 39.5784 52.0637 38.7588C52.2978 38.6779 52.4568 38.6542 52.5404 38.6877C52.8164 38.7992 52.8917 38.9901 52.7662 39.2606C52.1947 40.504 51.8657 41.2009 51.7793 41.3515C51.4392 41.9481 51.2426 42.6827 51.1897 43.5553Z" fill="#59A5D5"/>
<path d="M180.224 41.41C180.137 41.2595 179.808 40.5639 179.237 39.3233C179.109 39.0529 179.182 38.8619 179.458 38.7504C179.542 38.717 179.701 38.7406 179.935 38.8215C182.221 39.6383 183.601 40.1499 184.075 40.3562C188.494 42.2966 191.717 45.4343 193.744 49.7695C195.433 53.3687 195.85 57.4125 194.994 61.901C194.907 62.3526 194.758 62.7317 194.546 63.0384C194.262 63.451 193.912 63.6448 193.497 63.6197C191.239 63.4859 189.309 63.0105 187.709 62.1937C186.338 61.4967 185.416 60.9628 184.945 60.592C183.193 59.2204 182.716 58.175 181.604 56.1133C181.211 55.3885 180.925 54.6539 180.746 53.9095C180.429 52.5769 180.233 51.7294 180.161 51.367C179.872 49.987 180.19 49.297 180.588 47.7288C180.844 46.7168 180.919 45.3451 180.813 43.6139C180.76 42.7413 180.564 42.0066 180.224 41.41Z" fill="#59A5D5"/>
<path d="M65.0773 57.1169C65.2669 57.0165 65.5652 56.6736 65.9722 56.0882C66.251 55.6867 66.3193 55.2769 66.1772 54.8587C65.7088 53.4954 65.1861 52.9978 63.8855 52.3371C62.8791 51.8269 61.8769 51.162 60.8788 50.3423C59.6884 49.3638 59.2367 48.0688 59.5239 46.4574C59.7497 45.2085 60.0215 44.2913 60.3393 43.7058C61.4824 41.6233 63.0255 40.069 64.9686 39.0431C65.0913 38.9817 65.1986 39.0013 65.2906 39.1016C66.0573 39.9436 66.5479 40.5806 66.7626 41.0127C67.3118 42.1139 67.9042 43.6807 68.5399 45.7131C69.2592 47.9922 70.0621 49.9994 71.1368 51.5133C71.4546 51.9593 72.3091 52.9881 73.7003 54.5994C74.1324 55.0985 74.4321 55.7927 74.5993 56.682C74.8503 58.0034 74.913 59.3012 74.7875 60.5753C74.6621 61.8187 74.2313 62.8014 73.4953 63.5234C72.8959 64.1117 72.1488 64.6344 71.2539 65.0916C70.7549 65.3481 69.8878 65.4945 68.6528 65.5307C66.0238 65.6088 63.2596 64.9885 60.3602 63.6698C59.2339 63.1596 57.7759 62.9352 55.9861 62.9965C55.3532 63.0188 54.8793 62.9659 54.5642 62.8376C54.2938 62.7233 53.8589 62.4404 53.2595 61.9887C52.4482 61.374 52.4901 60.178 52.557 59.3584C52.7438 57.181 53.6122 55.2867 55.1623 53.6753C55.3407 53.4885 56.1478 53.0229 57.5835 52.2785C57.709 52.2116 57.8344 52.2116 57.9599 52.2785C58.8241 52.7357 59.4333 53.1163 59.7873 53.4202C60.7854 54.2705 62.0804 55.4497 63.6722 56.958C64.0849 57.3455 64.5532 57.3985 65.0773 57.1169Z" fill="#59A5D5"/>
<path d="M166.599 57.0375C166.697 57.1353 166.829 57.1912 166.968 57.1935C167.107 57.1958 167.241 57.1444 167.344 57.05C169.538 55.0037 171.085 53.6195 171.986 52.8975C172.34 52.6159 172.809 52.3706 173.395 52.1615C173.529 52.1141 173.662 52.1141 173.796 52.1615C176.528 53.1372 178.145 55.0623 178.647 57.9366C178.692 58.2014 178.704 59.0726 178.685 60.5502C178.679 61.105 178.527 61.5148 178.229 61.7797C177.736 62.2146 177.317 62.4487 176.974 62.4822C174.624 62.708 171.919 62.8627 169.815 63.9207C168.892 64.3835 168.145 64.6721 167.574 64.7864C165.918 65.1209 164.854 65.3244 164.383 65.3969C160.904 65.9364 157.73 64.1089 156.534 60.7886C155.768 58.6558 156.847 55.7829 158.123 54.0851C159.497 52.2563 160.566 50.7411 161.33 49.5395C161.774 48.8481 162.457 47.0346 163.379 44.0989C163.572 43.4856 163.788 42.9057 164.028 42.3593C164.329 41.6693 165.357 38.5622 166.884 39.1602C169.564 40.2057 171.459 43.7853 172.086 46.4073C172.471 48.0215 171.822 48.9666 170.392 50.15C169.614 50.794 168.554 51.5468 167.21 52.4082C166.374 52.9463 165.653 53.6628 165.048 54.5577C164.8 54.9257 164.833 55.2672 165.148 55.5822L166.599 57.0375Z" fill="#59A5D5"/>
<path d="M114.791 43.271C115.047 42.7468 115.251 42.7677 115.401 43.3337C115.418 43.3867 115.486 43.5107 115.606 43.7059C115.679 43.8257 115.715 43.9554 115.715 44.0948C115.718 46.1968 115.786 47.8821 115.92 49.1506C116.11 50.9153 116.2 52.5853 116.192 54.1604C116.186 54.9522 116.146 57.4836 116.07 61.7546C116.054 62.7917 116.409 63.6866 116.405 64.7028C116.394 70.089 116.425 73.5376 116.497 75.0486C116.553 76.2334 116.6 77.4183 116.639 78.6031C116.689 80.0751 116.713 83.4345 116.71 88.6813C116.71 89.2947 116.766 89.9665 116.878 90.697C117.174 92.6164 116.915 94.3937 117.108 96.2922C117.322 98.3636 117.43 99.4049 117.43 99.416C117.789 102.703 118.042 104.597 118.186 105.099C119.173 108.511 121.426 110.54 124.944 111.184C125.887 111.354 127.211 111.129 128.917 110.51C132.098 109.353 135.244 107.946 138.355 106.287C140.786 104.99 142.564 104.119 143.687 103.673C145.773 102.842 147.639 102.18 149.287 101.687C150.764 101.246 152.082 100.93 153.238 100.737C155.246 100.403 156.76 99.9806 158.587 99.9471C162.975 99.8774 166.803 99.9931 170.07 100.294C170.505 100.333 170.526 100.449 170.133 100.641C169.726 100.845 169.251 101.007 168.707 101.126C167.5 101.397 164.718 101.928 160.36 102.72C159.462 102.881 157.374 103.481 154.096 104.518C149.281 106.043 144.901 108.111 140.956 110.724C133.594 115.594 128.089 122.147 124.442 130.382C123.115 133.379 122.144 136.166 121.528 138.742C120.884 141.441 120.34 144.327 119.897 147.402C119.755 148.375 119.658 149.941 119.608 152.099C119.554 154.277 119.374 156.201 119.454 158.375C119.532 160.491 119.519 162.153 119.416 163.36C119.341 164.241 119.313 165.517 119.332 167.187C119.349 168.366 119.258 169.644 119.06 171.021C119.027 171.247 119.076 171.679 119.207 172.318C119.302 172.772 119.348 173.199 119.345 173.597C119.32 175.975 119.309 179.268 119.311 183.475C119.316 185.076 119.537 186.803 119.575 188.409C119.575 188.429 119.59 191.084 119.621 196.376C119.626 197.555 119.709 199.112 119.868 201.047C119.971 202.304 119.965 203.865 119.851 205.73C119.834 206.029 119.677 206.178 119.378 206.178H111.128C110.826 206.178 110.663 206.027 110.638 205.726C110.513 204.21 110.511 202.63 110.634 200.988C110.79 198.892 110.875 197.314 110.889 196.254C110.925 193.372 110.945 190.118 110.948 186.494C110.948 185.779 111.144 184.809 111.157 183.985C111.257 178.819 111.236 175.206 111.094 173.146C111.027 172.167 111.062 171.173 111.199 170.164C111.268 169.648 111.239 168.978 111.111 168.153C111.033 167.642 110.998 166.976 111.006 166.154C111.045 161.685 111.01 157.104 110.902 152.412C110.885 151.701 110.814 150.876 110.688 149.937C110.546 148.853 110.659 147.749 110.404 146.604C110.371 146.456 110.21 145.412 109.923 143.471C109.586 141.177 108.867 138.384 107.765 135.091C102.811 120.282 92.8461 110.273 77.8696 105.066C72.8375 103.318 67.7593 102.091 62.6352 101.386C62.079 101.306 61.1841 101.018 60.6405 100.783C59.9658 100.491 59.9951 100.317 60.7283 100.261C62.7272 100.113 65.1959 99.9973 68.1343 99.9137C70.6601 99.8412 73.1107 100.022 75.4859 100.457C79.0795 101.112 82.3246 101.995 85.2212 103.104C88.6545 104.422 92.7987 106.764 96.0228 108.269C98.5124 109.437 100.982 110.368 103.433 111.062C103.874 111.188 104.402 111.217 105.018 111.15C109.3 110.676 111.746 108.27 112.357 103.932C112.756 101.086 113.033 99.0188 113.189 97.7308C113.532 94.837 113.607 91.1486 113.553 88.5893C113.539 87.962 113.571 87.2999 113.649 86.603C113.738 85.7833 113.787 85.1212 113.796 84.6166C113.837 82.1633 113.843 78.4526 113.812 73.4846C113.804 72.4391 114.109 71.54 114.109 70.549C114.109 66.618 114.105 62.6871 114.097 58.7562C114.092 57.8864 114.402 57.0584 114.398 56.176C114.373 49.4656 114.403 45.4943 114.49 44.262C114.512 43.9665 114.612 43.6362 114.791 43.271Z" fill="#4385AC"/>
<path d="M204.202 62.2145C206.088 61.3029 207.514 59.6385 208.919 57.832C209.513 57.0709 209.833 57.1727 209.877 58.1373C209.93 59.2775 210.021 60.3885 210.149 61.4702C210.302 62.7554 210.355 63.865 210.308 64.7989C210.071 69.7781 208.624 74.1787 205.967 78.0009C202.086 83.5878 195.977 86.7534 189.236 87.9662C189.119 87.9877 188.999 87.9759 188.889 87.9323C188.779 87.8887 188.683 87.8149 188.613 87.7194C188.207 87.1716 188.052 86.2934 187.902 85.8209C187.277 83.8833 186.95 81.8886 186.919 79.8367C186.885 77.7319 187.233 75.7692 187.96 73.9487C189.563 69.9342 192.181 66.9539 195.814 65.008C197.325 64.1967 199.406 63.5555 202.057 63.0844C202.425 63.0202 203.14 62.7303 204.202 62.2145Z" fill="#59A5D5"/>
<path d="M27.7882 62.1728C28.8504 62.6885 29.5669 62.9784 29.9377 63.0426C32.589 63.5109 34.6715 64.1494 36.1853 64.9578C39.8207 66.901 42.4427 69.8798 44.0513 73.8944C44.7818 75.7149 45.1316 77.6775 45.101 79.7824C45.0731 81.8371 44.7469 83.8332 44.1224 85.7708C43.9719 86.2433 43.8213 87.1215 43.4157 87.6735C43.3455 87.7689 43.2498 87.8427 43.1396 87.8863C43.0294 87.93 42.9092 87.9417 42.7926 87.9202C36.0473 86.7117 29.9293 83.5544 26.0402 77.9675C23.3778 74.1481 21.9253 69.7474 21.6828 64.7655C21.6354 63.8315 21.687 62.722 21.8375 61.4368C21.9658 60.3551 22.055 59.2427 22.1052 58.0997C22.1498 57.1351 22.469 57.0333 23.0628 57.7944C24.4721 59.6009 25.9022 61.2653 27.7882 62.1728Z" fill="#59A5D5"/>
<path d="M132.334 91.3158C133.778 91.3659 135.032 91.2684 136.097 91.023C137.299 90.747 138.811 90.34 140.635 89.8019C141.212 89.6319 142.698 89.1398 145.092 88.3258C149.31 86.8956 153.658 85.8933 158.135 85.319C159.064 85.1992 160.119 85.1253 161.301 85.0974C162.91 85.0612 163.97 85.0082 164.483 84.9385C165.718 84.7712 166.953 84.7364 168.189 84.8339C170.168 84.9929 171.409 85.1504 171.91 85.3065C172.646 85.5323 173.385 85.7539 174.127 85.9714C176.335 86.6154 178.869 86.5569 181.261 86.5778C182.633 86.5903 183.176 88.4679 182.971 89.5343C182.67 91.0927 182.311 92.2859 181.892 93.1139C181.778 93.3398 181.406 93.8346 180.776 94.5985C180.346 95.1226 179.838 95.4237 179.249 95.5018C176.983 95.7973 175.324 95.7903 174.273 95.4809C173.041 95.1156 171.618 94.7518 170.003 94.3894C166.691 93.6478 163.414 93.7287 160.172 94.632C157.744 95.3094 156.29 95.7262 155.81 95.8823C154.846 96.1973 154.036 96.3841 153.381 96.4427C152.095 96.557 151.259 96.564 150.872 96.4636C149.67 96.1541 148.725 96.0092 148.036 96.0287C144.409 96.1318 140.945 96.9306 137.645 98.4249C135.562 99.3644 134.045 100.006 133.095 100.348C129.707 101.565 126.893 101.754 124.079 99.2654C122.545 97.9105 121.793 96.2545 121.821 94.2974C121.834 93.1962 121.786 92.1772 121.674 91.2405C121.51 89.8661 121.427 89.1691 121.427 89.1496C121.394 88.6589 121.26 87.2371 121.026 84.8841C120.973 84.3489 121.037 83.6296 121.218 82.7263C121.246 82.5841 121.33 82.4893 121.469 82.4419C123.772 81.6586 126.078 81.0452 128.386 80.6019C128.902 80.5016 130.491 79.983 133.153 79.0463C133.831 78.8066 133.99 78.3744 133.63 77.75L132.794 76.2947C132.476 75.7455 132.007 75.5447 131.389 75.6925L126.157 76.9345C126.096 76.9483 126.032 76.9497 125.969 76.9387L121.465 76.1358C121.326 76.1107 121.234 76.0326 121.189 75.9016C120.626 74.2846 120.381 73.2698 120.453 72.8572C120.645 71.7421 120.774 70.5795 120.838 69.3696C120.916 67.8976 121.765 67.2592 123.385 67.4543C124.385 67.5742 125.534 67.8042 126.83 68.1443C127.499 68.3199 128.131 68.4203 128.725 68.4454C129.681 68.4844 130.333 68.4579 130.682 68.3659C132.065 68.0063 133.807 67.7526 135.909 67.6049C138.167 67.4459 140.268 68.0021 142.211 69.2734C145.933 71.7072 146.523 75.429 145.268 79.5063C144.663 81.4801 143.372 82.9047 141.396 83.7801C140.838 84.0255 139.546 84.551 137.519 85.3567C135.838 86.0202 134.372 87.1256 133.12 88.6729C132.562 89.3615 132.229 90.1588 132.12 91.0649C132.101 91.2238 132.172 91.3074 132.334 91.3158Z" fill="#59A5D5"/>
<path d="M99.5357 68.3744L100.138 68.4162C102.158 68.4748 104.357 68.596 106.306 68.0106C107.474 67.6565 108.575 67.5548 109.61 67.7053C109.776 67.7299 109.931 67.8028 110.057 67.915C110.182 68.0272 110.273 68.1738 110.316 68.3368C110.941 70.6814 111.093 73.0803 110.772 75.5337C110.716 75.9658 110.473 76.2153 110.04 76.2822C108.738 76.4885 107.393 76.7757 106.005 77.1437C105.525 77.2719 104.589 77.0935 103.195 76.6084C102.699 76.4356 101.664 76.2739 100.092 76.1233C99.3531 76.0536 98.8136 76.2167 98.4735 76.6126C97.8755 77.3109 97.1981 78.8499 98.4735 79.3475C99.8368 79.8744 100.748 80.2089 102.124 80.5059C104.511 81.0188 106.678 81.5736 108.627 82.1702C110.45 82.7264 110.705 83.7635 110.413 85.591C110.067 87.7599 109.817 90.2397 109.664 93.0304C109.568 94.7324 109.455 96.9279 108.485 98.2869C107.788 99.2655 106.808 100.078 105.545 100.725C103.752 101.642 101.852 101.762 99.8451 101.085C99.1537 100.85 98.2003 100.512 96.9848 100.068C96.2348 99.7952 95.2842 99.3868 94.1328 98.8431C91.9248 97.8032 90.3399 97.1955 89.3781 97.0199C87.4126 96.663 85.5238 96.3382 83.7117 96.0455C83.4221 95.9986 83.1274 96.0114 82.8461 96.0831C82.2522 96.2337 81.5901 96.4107 80.8597 96.6142C80.3607 96.7536 79.6944 96.7689 78.8608 96.6602C77.2341 96.4469 76.3266 96.334 74.9466 95.8866C72.2201 95.0028 69.8253 94.3895 67.7622 94.0466C66.4937 93.8375 65.1305 93.8849 63.6724 94.1888C60.6977 94.8077 58.2193 95.3653 56.2371 95.8615C55.1164 96.1431 54.2564 96.21 53.657 96.0622C52.854 95.8671 52.0051 95.5632 51.1102 95.1506C50.1735 94.7199 50.0564 94.0299 49.6131 93.2771C48.5984 91.5542 48.2708 89.7797 48.6304 87.9537C48.7196 87.502 48.9845 87.134 49.425 86.8497C49.8404 86.5793 50.5108 86.5026 51.4364 86.6197C53.0394 86.8232 54.5101 86.7786 55.8482 86.4859C57.6924 86.0844 59.269 85.3693 61.1675 85.2606C65.1514 85.0348 67.5183 84.9679 68.2682 85.0599C69.9465 85.2634 71.2248 85.3846 72.103 85.4237C73.246 85.4739 74.3012 85.5993 75.2686 85.8C77.0501 86.1764 79.969 86.4649 81.901 87.1759C82.6788 87.463 83.4454 87.6916 84.201 87.8617C84.8728 88.0094 85.6381 88.2436 86.4968 88.5642C87.6203 88.9852 89.3767 89.5665 91.7659 90.308C92.7807 90.6231 93.9418 90.9102 95.2493 91.1695C97.1339 91.5403 98.3034 91.7703 98.7579 91.8595C98.8399 91.8763 98.9248 91.8735 99.0056 91.8512C99.0864 91.829 99.1609 91.788 99.2232 91.7314C99.2854 91.6749 99.3336 91.6044 99.3639 91.5257C99.3942 91.447 99.4058 91.3622 99.3977 91.2782C99.1928 89.3169 96.713 87.0964 95.1615 86.1011C94.5788 85.7276 93.5961 85.3052 92.2133 84.834C90.8696 84.374 89.8868 83.9433 89.2651 83.5419C86.8564 81.9918 85.6883 79.7559 85.7608 76.8342C85.8068 74.9524 85.6437 73.4929 86.731 71.9415C87.3554 71.0466 88.1221 70.2534 89.031 69.562C89.4352 69.2554 90.1419 68.879 91.1511 68.4329C91.8648 68.1179 92.6329 67.9395 93.4553 67.8977C95.51 67.7945 97.5368 67.9534 99.5357 68.3744Z" fill="#59A5D5"/>
<path d="M47.9194 100.303C46.4809 103.853 43.9091 106.784 40.6514 108.8C37.8217 110.554 34.6059 111.711 31.004 112.271C30.544 112.343 29.5612 112.474 28.0558 112.664C26.8709 112.812 25.8784 112.865 25.0783 112.823C19.9431 112.561 15.2357 111.139 10.9563 108.557C7.41851 106.425 4.19293 103.744 1.2796 100.516C1.13184 100.351 1.13045 100.184 1.27542 100.014C4.89966 95.7653 9.15814 92.5021 14.0509 90.2244C15.4016 89.5971 17.0032 89.204 18.4669 88.6478C19.5207 88.2506 20.9174 88.0749 22.1511 87.8658C23.9451 87.5689 25.9272 87.7111 27.7463 87.7069C29.5891 87.6986 30.9538 87.7655 31.8403 87.9077C35.367 88.468 38.6428 89.7727 41.6676 91.8218C44.4736 93.7204 46.5687 96.7773 47.9111 99.8217C47.9454 99.8969 47.9639 99.9785 47.9653 100.061C47.9668 100.144 47.9511 100.226 47.9194 100.303Z" fill="#59A5D5"/>
<path d="M224.656 95.3931C226.303 96.7312 227.772 98.2116 229.063 99.8342C229.18 99.9806 229.239 100.165 229.23 100.352C229.221 100.539 229.144 100.716 229.013 100.85C224.087 105.927 218.345 110.013 211.709 111.807C206.808 113.134 201.767 113.212 196.587 112.041C195.623 111.823 194.297 111.363 192.61 110.661C191.189 110.067 190.002 109.391 189.052 108.633C187.599 107.473 186.186 106.066 184.811 104.413C183.866 103.276 183.327 101.791 182.57 100.336C182.533 100.266 182.514 100.188 182.512 100.108C182.511 100.028 182.528 99.9488 182.561 99.876C184.24 96.2462 186.796 93.4708 190.231 91.55C193.596 89.6709 197.206 88.4568 201.062 87.9076C201.982 87.7794 203.089 87.7152 204.382 87.7152C206.369 87.7152 207.226 87.6442 208.819 87.8825C212.432 88.4178 215.904 89.6556 219.236 91.596C220.97 92.6052 222.777 93.8709 224.656 95.3931Z" fill="#59A5D5"/>
<path d="M69.3889 138.625C69.704 140.281 70.38 141.799 71.4171 143.179C71.4474 143.22 71.4655 143.27 71.4691 143.321C71.4728 143.373 71.4619 143.424 71.4378 143.469C71.4137 143.514 71.3773 143.552 71.3329 143.576C71.2885 143.601 71.2379 143.613 71.1871 143.609C69.8685 143.531 68.7254 143.339 67.758 143.032C67.351 142.904 66.0184 142.461 63.7602 141.703C62.974 141.441 61.6163 140.728 59.6871 139.566C58.5413 138.877 56.8212 137.444 54.5268 135.267C50.8942 131.813 48.7085 127.575 47.9697 122.554C47.7411 120.993 47.5849 119.531 47.5013 118.167C47.44 117.2 47.5125 116.345 47.7188 115.604C48.0282 114.508 47.8526 113.413 48.1913 112.166C49.0472 109.008 49.6717 107.017 50.0648 106.195C50.43 105.434 50.8579 104.709 51.3486 104.02C51.8379 103.322 52.2853 103.619 52.9669 103.669C56.7501 103.953 60.4315 105.082 64.0111 107.056C65.8623 108.077 67.3036 109.225 68.3351 110.502C69.7291 112.225 70.702 113.831 71.254 115.319C71.8283 116.87 72.3065 118.644 72.6884 120.643C72.7581 121.008 72.786 121.677 72.772 122.65C72.7637 123.291 72.687 123.959 72.542 124.653C72.0653 126.923 71.5105 128.848 70.8777 130.428C70.0748 132.427 69.6315 133.75 69.5479 134.397C69.283 136.387 69.23 137.797 69.3889 138.625Z" fill="#59A5D5"/>
<path d="M158.641 120.781C158.625 119.956 158.639 119.418 158.683 119.167C159.81 112.888 163.276 108.479 169.083 105.94C171.919 104.702 174.873 103.941 177.945 103.656C179.208 103.539 180.075 104.045 180.546 105.174C181.781 108.135 182.683 111.156 183.251 114.236C183.41 115.095 183.476 116.036 183.448 117.059C183.406 118.514 183.456 119.702 183.339 120.844C182.734 126.826 180.305 131.842 176.05 135.89C173.965 137.872 171.484 139.602 168.607 141.079C166.273 142.278 163.308 143.154 159.712 143.706C159.545 143.731 159.496 143.668 159.566 143.517C159.984 142.581 160.35 141.82 160.666 141.234C161.187 140.258 161.51 139.482 161.636 138.905C161.993 137.266 161.944 135.682 161.489 134.154C160.912 132.208 160.155 130.201 159.219 128.133C158.965 127.569 158.763 126.28 158.612 124.264C158.575 123.729 158.336 123.093 158.202 122.512C158.172 122.376 158.183 122.242 158.236 122.111C158.512 121.431 158.647 120.987 158.641 120.781Z" fill="#59A5D5"/>
<path d="M27.8008 139.528C25.9148 140.444 24.493 142.112 23.0879 143.923C22.4941 144.687 22.1748 144.587 22.1302 143.622C22.0745 142.479 21.9811 141.367 21.8501 140.285C21.6939 139 21.6396 137.889 21.687 136.952C21.9156 131.967 23.3555 127.56 26.0068 123.729C29.8833 118.13 35.993 114.951 42.7382 113.726C42.8548 113.705 42.9749 113.716 43.085 113.759C43.1951 113.802 43.2908 113.874 43.3613 113.969C43.767 114.517 43.9259 115.395 44.0764 115.867C44.7065 117.808 45.0382 119.805 45.0717 121.86C45.1079 123.965 44.7636 125.929 44.0388 127.752C42.4413 131.775 39.8263 134.764 36.1937 136.718C34.6827 137.532 32.6015 138.177 29.9502 138.654C29.5795 138.718 28.863 139.009 27.8008 139.528Z" fill="#59A5D5"/>
<path d="M187.27 114.859C188.583 115.474 190.252 115.491 191.578 115.892C197.577 117.71 202.137 121.125 205.256 126.138C207.506 129.757 208.71 133.972 208.869 138.784C208.897 139.623 208.829 140.654 208.664 141.878C208.547 142.729 208.43 143.757 208.313 144.964C208.294 145.168 208.257 145.335 208.204 145.466C208.189 145.504 208.164 145.536 208.132 145.561C208.1 145.586 208.062 145.602 208.022 145.608C207.982 145.614 207.942 145.609 207.904 145.595C207.866 145.58 207.833 145.556 207.807 145.525C206.726 144.212 205.818 143.138 205.085 142.305C204.533 141.677 202.906 140.762 201.794 140.394C200.871 140.093 199.676 139.745 198.21 139.352C196.498 138.895 195.34 138.516 194.735 138.215C193.592 137.649 192.558 136.962 191.632 136.153C190.291 134.985 189.121 133.693 188.123 132.277C186.9 130.54 186.083 128.52 185.673 126.217C185.506 125.283 185.453 124.421 185.514 123.629C185.556 123.11 185.563 122.535 185.535 121.902C185.513 121.461 185.582 120.898 185.744 120.212C185.867 119.688 186.193 118.293 186.722 116.026C186.842 115.524 186.971 115.154 187.107 114.914C187.123 114.886 187.149 114.865 187.179 114.855C187.209 114.845 187.242 114.846 187.27 114.859Z" fill="#59A5D5"/>
<path d="M96.3575 143.497C95.4291 142.255 93.9404 141.397 92.7904 140.929C92.6259 140.859 91.5149 140.508 89.4575 139.875C86.4103 138.936 83.8817 137.248 81.8717 134.811C79.9034 132.422 78.6851 129.98 78.2168 127.484C77.924 125.925 78.1122 124.407 78.0579 122.679C78.0272 121.868 78.1763 120.796 78.5053 119.464C78.936 117.711 79.1619 116.085 80.2115 115.173C80.323 115.076 80.4513 115.042 80.5962 115.073C85.0401 116.004 88.9111 117.845 92.2091 120.597C95.3999 123.265 97.7584 126.845 99.0673 130.775C100.205 134.174 100.64 137.571 100.372 140.967C100.221 142.896 99.7922 144.726 99.084 146.457C99.0546 146.529 99.006 146.591 98.9436 146.637C98.8813 146.682 98.8077 146.71 98.731 146.717C98.6542 146.723 98.5774 146.708 98.5091 146.673C98.4407 146.639 98.3836 146.586 98.3439 146.52C97.4462 145.073 96.784 144.065 96.3575 143.497Z" fill="#59A5D5"/>
<path d="M134.153 144.797C133.726 145.369 133.064 146.379 132.166 147.829C132.126 147.894 132.068 147.946 131.999 147.98C131.93 148.015 131.854 148.029 131.777 148.023C131.701 148.016 131.628 147.989 131.566 147.944C131.504 147.898 131.456 147.837 131.426 147.766C130.715 146.032 130.283 144.199 130.13 142.267C129.857 138.869 130.287 135.466 131.422 132.059C132.731 128.12 135.085 124.532 138.28 121.86C141.581 119.1 145.456 117.25 149.906 116.311C150.051 116.28 150.179 116.313 150.29 116.411C151.34 117.323 151.57 118.953 152.005 120.706C152.334 122.041 152.484 123.114 152.457 123.926C152.402 125.657 152.595 127.175 152.302 128.739C151.836 131.24 150.619 133.687 148.651 136.082C146.641 138.524 144.11 140.218 141.057 141.163C138.999 141.799 137.887 142.151 137.72 142.221C136.57 142.694 135.081 143.551 134.153 144.797Z" fill="#59A5D5"/>
<path d="M61.0337 160.408C61.201 160.636 61.1438 160.726 60.8623 160.675C57.8402 160.162 55.2447 159.156 53.0757 157.656C49.7972 155.39 47.1292 152.387 45.7533 148.598C44.2981 144.578 44.2103 140.472 45.4899 136.279C45.5791 135.989 45.7729 135.851 46.0712 135.865C50.5011 136.06 54.1253 137.822 56.9439 141.151C57.6827 142.026 58.289 143.053 58.763 144.233C59.1867 145.275 59.5115 146.438 59.7373 147.72C60.0468 149.439 59.729 150.961 59.3484 152.605C58.7072 155.378 59.269 157.98 61.0337 160.408Z" fill="#59A5D5"/>
<path d="M169.485 161.721C171.25 159.284 171.807 156.675 171.158 153.893C170.773 152.245 170.451 150.719 170.756 148.996C170.982 147.71 171.305 146.544 171.726 145.495C172.2 144.313 172.807 143.282 173.545 142.401C176.364 139.056 179.995 137.281 184.439 137.077C184.737 137.064 184.931 137.202 185.02 137.492C186.314 141.693 186.234 145.811 184.782 149.845C183.41 153.65 180.742 156.665 177.46 158.944C175.288 160.455 172.687 161.471 169.656 161.993C169.375 162.043 169.318 161.952 169.485 161.721Z" fill="#59A5D5"/>
<path d="M66.9133 159.697C67.4375 156.279 69.0265 153.487 71.6806 151.321C73.5206 149.821 75.6533 148.82 78.0788 148.318C80.1321 147.892 81.5371 148.101 83.9375 148.473C85.6311 148.736 87.0237 148.498 88.6086 147.57C89.1606 147.243 89.7433 146.913 90.3566 146.579C90.4149 146.546 90.481 146.531 90.5476 146.534C90.6141 146.538 90.6785 146.56 90.7336 146.598C90.7887 146.636 90.8322 146.689 90.8595 146.75C90.8867 146.812 90.8964 146.88 90.8877 146.947C90.5671 149.322 89.7349 151.51 88.3911 153.512C86.5484 156.255 84.1591 158.537 81.2235 160.358C80.9475 160.528 79.9843 160.946 78.3339 161.612C77.2048 162.069 76.2025 162.359 75.3272 162.482C73.3199 162.761 71.2276 162.804 69.0502 162.612C68.2724 162.542 67.4054 162.354 66.4491 162.047C66.409 162.034 66.3722 162.013 66.3411 161.984C66.3101 161.955 66.2856 161.921 66.2693 161.882C66.253 161.843 66.2453 161.801 66.2468 161.759C66.2482 161.716 66.2588 161.675 66.2777 161.637C66.6039 160.993 66.8158 160.347 66.9133 159.697Z" fill="#59A5D5"/>
<path d="M145.009 149.899C145.695 149.971 146.502 149.872 147.43 149.602C148.063 149.418 149.408 149.39 151.466 149.518C152.327 149.574 153.145 149.746 153.92 150.033C155.154 150.489 156.082 150.777 157.052 151.367C159.754 152.998 161.704 155.274 162.903 158.196C163.522 159.701 163.576 161.437 164.044 162.837C164.212 163.342 164.031 163.619 163.501 163.67C161.836 163.831 160.778 163.955 160.327 164.042C159.309 164.231 158.511 164.254 157.931 164.109C156.521 163.757 155.095 163.904 153.469 163.36C146.106 160.899 141.421 155.878 139.414 148.297C139.402 148.253 139.4 148.206 139.408 148.161C139.417 148.115 139.435 148.072 139.463 148.035C139.49 147.998 139.525 147.967 139.566 147.945C139.607 147.923 139.652 147.911 139.698 147.908C140.147 147.883 140.582 148.003 141.003 148.268C142.542 149.235 143.877 149.779 145.009 149.899Z" fill="#59A5D5"/>
</svg>
