<svg viewBox="0 0 20 20" fill="currentColor" xmlns="http://www.w3.org/2000/svg">
<path d="M3.33285 2.22217C2.10715 2.22217 1.11062 3.2187 1.11062 4.44439V14.4444H3.33285V4.44439H16.6662V14.4444H18.8884V4.44439C18.8884 3.2187 17.8919 2.22217 16.6662 2.22217H3.33285ZM7.77729 14.4444V15.5555H1.11062C0.496039 15.5555 -0.000488281 16.052 -0.000488281 16.6666C-0.000488281 17.2812 0.496039 17.7777 1.11062 17.7777H18.8884C19.503 17.7777 19.9995 17.2812 19.9995 16.6666C19.9995 16.052 19.503 15.5555 18.8884 15.5555H14.444V14.4444C14.444 13.8298 13.9474 13.3333 13.3328 13.3333H8.8884C8.27382 13.3333 7.77729 13.8298 7.77729 14.4444Z"/>
</svg>
