<svg viewBox="0 0 20 18" fill="currentColor" xmlns="http://www.w3.org/2000/svg">
  <path d="M 20 2.786 C 20 2.113 19.733 1.468 19.257 0.993 C 18.782 0.517 18.137 0.25 17.464 0.25 L 2.536 0.25 C 1.863 0.25 1.218 0.517 0.743 0.993 C 0.267 1.468 0 2.113 0 2.786 L 0 15.214 C 0 15.887 0.267 16.532 0.743 17.007 C 1.218 17.483 1.863 17.75 2.536 17.75 L 17.464 17.75 C 18.137 17.75 18.782 17.483 19.257 17.007 C 19.733 16.532 20 15.887 20 15.214 L 20 2.786 Z M 17.501 15.205 C 17.501 15.218 17.496 15.229 17.488 15.238 C 17.479 15.247 17.467 15.252 17.455 15.252 L 8.797 15.252 C 8.785 15.252 8.773 15.247 8.764 15.238 C 8.755 15.229 8.751 15.218 8.751 15.205 L 8.751 2.796 C 8.751 2.784 8.755 2.772 8.764 2.763 C 8.773 2.755 8.785 2.75 8.797 2.75 L 17.455 2.75 C 17.467 2.75 17.479 2.755 17.488 2.763 C 17.496 2.772 17.501 2.784 17.501 2.796 L 17.501 15.205 Z" />
</svg>