<svg viewBox="0 0 20 20" fill="currentColor" xmlns="http://www.w3.org/2000/svg">
<path d="M9.5 0C7.86719 0 6.47656 1.04297 5.96484 2.5H4.5C3.12109 2.5 2 3.62109 2 5V17.5C2 18.8789 3.12109 20 4.5 20H14.5C15.8789 20 17 18.8789 17 17.5V5C17 3.62109 15.8789 2.5 14.5 2.5H13.0352C12.5234 1.04297 11.1328 0 9.5 0ZM9.5 2.5C9.83152 2.5 10.1495 2.6317 10.3839 2.86612C10.6183 3.10054 10.75 3.41848 10.75 3.75C10.75 4.08152 10.6183 4.39946 10.3839 4.63388C10.1495 4.8683 9.83152 5 9.5 5C9.16848 5 8.85054 4.8683 8.61612 4.63388C8.3817 4.39946 8.25 4.08152 8.25 3.75C8.25 3.41848 8.3817 3.10054 8.61612 2.86612C8.85054 2.6317 9.16848 2.5 9.5 2.5ZM6.375 7.5H12.625C12.9688 7.5 13.25 7.78125 13.25 8.125C13.25 8.46875 12.9688 8.75 12.625 8.75H6.375C6.03125 8.75 5.75 8.46875 5.75 8.125C5.75 7.78125 6.03125 7.5 6.375 7.5Z" />
</svg>
