<svg viewBox="0 0 20 20" fill="currentColor" xmlns="http://www.w3.org/2000/svg">
<path d="M6.42472 0.0223226L2.19234 0.00754876C0.997992 0.00337969 0.0264053 0.968241 0.0222361 2.16263L0.00746177 6.39515C0.00329256 7.58954 0.96812 8.56116 2.16246 8.56533L6.39484 8.5801C7.58919 8.58427 8.56078 7.61941 8.56494 6.42502L8.57972 2.1925C8.58389 0.998112 7.61906 0.0264917 6.42472 0.0223226Z"/>
<path d="M17.8368 0.0223234L13.6044 0.00754902C12.4101 0.00337981 11.4385 0.968241 11.4343 2.16263L11.4196 6.39515C11.4154 7.58954 12.3802 8.56116 13.5746 8.56533L17.807 8.5801C19.0013 8.58427 19.9729 7.61941 19.9771 6.42503L19.9918 2.1925C19.996 0.998113 19.0312 0.0264926 17.8368 0.0223234Z" />
<path d="M6.42472 11.4347L2.19234 11.4199C0.997992 11.4157 0.0264053 12.3806 0.0222361 13.575L0.00746177 17.8075C0.00329256 19.0019 0.96812 19.9735 2.16246 19.9777L6.39484 19.9925C7.58919 19.9966 8.56078 19.0318 8.56494 17.8374L8.57972 13.6049C8.58389 12.4105 7.61906 11.4388 6.42472 11.4347Z" />
<path d="M17.8373 11.4347L13.6035 11.4199C12.4091 11.4157 11.4375 12.3806 11.4334 13.575L11.4186 17.8075C11.4144 19.0019 12.3793 19.9735 13.5736 19.9777L17.8074 19.9925C19.0017 19.9966 19.9733 19.0318 19.9775 17.8374L19.9923 13.6049C19.9964 12.4105 19.0316 11.4389 17.8373 11.4347Z" />
</svg>
