<svg viewBox="0 0 20 20" fill="currentColor" xmlns="http://www.w3.org/2000/svg">
<path d="M4.28523 1.25V2.5H2.14237C0.959333 2.5 -0.000488281 3.33984 -0.000488281 4.375V6.25H19.9995V4.375C19.9995 3.33984 19.0397 2.5 17.8567 2.5H15.7138V1.25C15.7138 0.558594 15.0754 0 14.2852 0C13.495 0 12.8567 0.558594 12.8567 1.25V2.5H7.14237V1.25C7.14237 0.558594 6.50398 0 5.7138 0C4.92362 0 4.28523 0.558594 4.28523 1.25ZM19.9995 7.5H-0.000488281V18.125C-0.000488281 19.1602 0.959333 20 2.14237 20H17.8567C19.0397 20 19.9995 19.1602 19.9995 18.125V7.5Z" />
</svg>
