<svg viewBox="0 0 20 20" fill="currentColor" xmlns="http://www.w3.org/2000/svg">
<path d="M19.3706 6.50781C19.4956 6.84766 19.3901 7.22656 19.1206 7.46875L17.4292 9.00781C17.4722 9.33203 17.4956 9.66406 17.4956 10C17.4956 10.3359 17.4722 10.668 17.4292 10.9922L19.1206 12.5312C19.3901 12.7734 19.4956 13.1523 19.3706 13.4922C19.1987 13.957 18.9917 14.4023 18.7534 14.832L18.5698 15.1484C18.312 15.5781 18.023 15.9844 17.7066 16.3672C17.4761 16.6484 17.0933 16.7422 16.7495 16.6328L14.5737 15.9414C14.0503 16.3438 13.4722 16.6797 12.855 16.9336L12.3667 19.1641C12.2886 19.5195 12.0151 19.8008 11.6558 19.8594C11.1167 19.9492 10.562 19.9961 9.99562 19.9961C9.42921 19.9961 8.87452 19.9492 8.33546 19.8594C7.97608 19.8008 7.70265 19.5195 7.62452 19.1641L7.13624 16.9336C6.51905 16.6797 5.94093 16.3438 5.41749 15.9414L3.24562 16.6367C2.90187 16.7461 2.51905 16.6484 2.28858 16.3711C1.97218 15.9883 1.68312 15.582 1.4253 15.1523L1.24171 14.8359C1.00343 14.4062 0.796397 13.9609 0.624522 13.4961C0.499522 13.1562 0.60499 12.7773 0.874522 12.5352L2.56593 10.9961C2.52296 10.668 2.49952 10.3359 2.49952 10C2.49952 9.66406 2.52296 9.33203 2.56593 9.00781L0.874522 7.46875C0.60499 7.22656 0.499522 6.84766 0.624522 6.50781C0.796397 6.04297 1.00343 5.59766 1.24171 5.16797L1.4253 4.85156C1.68312 4.42188 1.97218 4.01562 2.28858 3.63281C2.51905 3.35156 2.90187 3.25781 3.24562 3.36719L5.4214 4.05859C5.94483 3.65625 6.52296 3.32031 7.14015 3.06641L7.62843 0.835938C7.70655 0.480469 7.97999 0.199219 8.33937 0.140625C8.87843 0.046875 9.43312 0 9.99952 0C10.5659 0 11.1206 0.046875 11.6597 0.136719C12.0191 0.195312 12.2925 0.476562 12.3706 0.832031L12.8589 3.0625C13.4761 3.31641 14.0542 3.65234 14.5776 4.05469L16.7534 3.36328C17.0972 3.25391 17.48 3.35156 17.7105 3.62891C18.0269 4.01172 18.3159 4.41797 18.5737 4.84766L18.7573 5.16406C18.9956 5.59375 19.2026 6.03906 19.3745 6.50391L19.3706 6.50781ZM9.99952 13.125C10.8283 13.125 11.6232 12.7958 12.2092 12.2097C12.7953 11.6237 13.1245 10.8288 13.1245 10C13.1245 9.1712 12.7953 8.37634 12.2092 7.79029C11.6232 7.20424 10.8283 6.875 9.99952 6.875C9.17072 6.875 8.37586 7.20424 7.78981 7.79029C7.20376 8.37634 6.87452 9.1712 6.87452 10C6.87452 10.8288 7.20376 11.6237 7.78981 12.2097C8.37586 12.7958 9.17072 13.125 9.99952 13.125Z" />
</svg>
